<?xml version="1.0" encoding="UTF-8" standalone="no"?>
<svg
   xmlns:dc="http://purl.org/dc/elements/1.1/"
   xmlns:cc="http://creativecommons.org/ns#"
   xmlns:rdf="http://www.w3.org/1999/02/22-rdf-syntax-ns#"
   xmlns:svg="http://www.w3.org/2000/svg"
   xmlns="http://www.w3.org/2000/svg"
   version="1.1"
   id="svg6176"
   height="279.77127"
   width="280">
  <defs
     id="defs6178" />
  <metadata
     id="metadata6181">
    <rdf:RDF>
      <cc:Work
         rdf:about="">
        <dc:format>image/svg+xml</dc:format>
        <dc:type
           rdf:resource="http://purl.org/dc/dcmitype/StillImage" />
        <dc:title />
      </cc:Work>
    </rdf:RDF>
  </metadata>
  <g
     transform="translate(-209.89731,-128.14398)"
     id="layer1">
    <path
       id="path2996-1"
       d="m 349.89731,128.28665 c -77.39495,0 -140,62.71487 -140,139.8143 0,77.09943 62.60505,139.8143 140,139.8143 77.39496,0 140,-62.71487 140,-139.8143 0,-77.09943 -62.60504,-139.8143 -140,-139.8143 z m 0,4.15253 c 74.73974,0 135.46423,60.62651 135.46423,135.66177 0,75.03526 -60.72449,135.66176 -135.46423,135.66176 -74.73974,0 -135.46423,-60.6265 -135.46423,-135.66176 0,-75.03526 60.72449,-135.66177 135.46423,-135.66177 z"
       style="color:#000000;font-style:normal;font-variant:normal;font-weight:normal;font-stretch:normal;font-size:medium;line-height:normal;font-family:Sans;-inkscape-font-specification:Sans;text-indent:0;text-align:start;text-decoration:none;text-decoration-line:none;letter-spacing:normal;word-spacing:normal;text-transform:none;writing-mode:lr-tb;direction:ltr;baseline-shift:baseline;text-anchor:start;display:inline;overflow:visible;visibility:visible;fill:none;fill-opacity:1;fill-rule:nonzero;stroke:none;stroke-width:7.18972206;marker:none;enable-background:accumulate" />
    <path
       id="path5224"
       d="m 350.226,160.02655 c -3.73378,0.0108 -7.5112,0.22848 -11.30597,0.61859 -60.71613,6.24189 -104.59446,59.62438 -98.28416,119.10317 a 0.96131674,0.76468572 0 0 0 1.91424,-0.14275 c -6.23975,-58.81366 37.15551,-111.32563 96.6092,-117.43772 59.45369,-6.11209 112.86176,36.40225 119.1015,95.21591 0.80946,7.62958 0.74124,15.31148 -0.11964,22.93557 a 0.96131674,0.76468572 0 1 0 1.91424,0.14275 c 0.87083,-7.71227 0.87862,-15.5033 0.0598,-23.22107 -5.91591,-55.76136 -53.88241,-97.37573 -109.88923,-97.21445 z"
       style="color:#000000;font-style:normal;font-variant:normal;font-weight:normal;font-stretch:normal;font-size:medium;line-height:normal;font-family:Sans;-inkscape-font-specification:Sans;text-indent:0;text-align:start;text-decoration:none;text-decoration-line:none;letter-spacing:normal;word-spacing:normal;text-transform:none;writing-mode:lr-tb;direction:ltr;baseline-shift:baseline;text-anchor:start;display:inline;overflow:visible;visibility:visible;fill:#000000;fill-opacity:0;stroke:none;stroke-width:1;marker:none;enable-background:accumulate" />
    <path
       id="path5224-7"
       d="m 353.1881,403.07874 c -31.17452,0.83355 -60.59538,-9.53536 -83.90773,-27.72266 -26.64268,-20.78547 -45.4002,-51.76025 -50.01643,-88.06022 a 1.1504859,0.93910604 0 0 1 2.2832,-0.23296 c 4.56445,35.89288 23.09367,66.5063 49.30293,86.95364 26.19161,20.43359 59.98905,30.71539 95.32375,26.15016 h 0.0713 c 59.23061,-7.68571 105.74049,-55.51076 112.16237,-115.78288 a 1.1466076,0.93594025 0 0 1 2.2832,0.17472 c -6.49526,60.96091 -53.59318,109.62202 -114.08882,117.47187 -4.51351,0.58567 -8.96032,0.92926 -13.41382,1.04833 z"
       style="color:#000000;font-style:normal;font-variant:normal;font-weight:normal;font-stretch:normal;font-size:medium;line-height:normal;font-family:Sans;-inkscape-font-specification:Sans;text-indent:0;text-align:start;text-decoration:none;text-decoration-line:none;letter-spacing:normal;word-spacing:normal;text-transform:none;writing-mode:lr-tb;direction:ltr;baseline-shift:baseline;text-anchor:start;display:inline;overflow:visible;visibility:visible;fill:#000000;fill-opacity:0;stroke:none;stroke-width:1;marker:none;enable-background:accumulate" />
    <ellipse
       ry="84.852814"
       rx="81.611908"
       cy="143.70343"
       cx="137.00194"
       transform="matrix(1.6654037,0,0,1.6017946,122.62897,36.329169)"
       id="path3955"
       style="fill:#ffffff;fill-opacity:1;stroke:#000000;stroke-width:3.06130672;stroke-linecap:square;stroke-linejoin:miter;stroke-miterlimit:4;stroke-dasharray:none;stroke-dashoffset:0;stroke-opacity:1" />
    <g
       id="text5244"
       style="font-style:normal;font-variant:normal;font-weight:normal;font-stretch:normal;font-size:20px;line-height:0%;font-family:'Swis721 Hv BT';-inkscape-font-specification:'Swis721 Hv BT';letter-spacing:0px;word-spacing:0px;fill:#000000;fill-opacity:1;stroke:#000000;stroke-width:0.39684418;stroke-miterlimit:4;stroke-opacity:0"
       transform="matrix(0.61928825,0,0,0.62917692,129.00699,-29.797853)">
      <path
         id="path5668"
         style="font-weight:bold;font-size:39.68441772px;line-height:0%;font-family:'Imperial BT';-inkscape-font-specification:'Imperial BT Bold';letter-spacing:0.99211043px;word-spacing:0.98218936px;fill:#000000;stroke:#000000;stroke-opacity:1"
         d="m 162.548,440.25153 c -2.1682,0.50593 -3.89822,1.39416 -5.19009,2.6647 -1.29181,1.27059 -2.03085,2.81831 -2.21711,4.64318 -0.25572,2.50603 0.65611,4.64101 2.73549,6.40494 2.07943,1.76395 4.97615,2.83544 8.69018,3.21446 3.86826,0.39477 6.97345,-0.0674 9.31555,-1.38666 2.34212,-1.31919 3.65023,-3.32175 3.92434,-6.0077 0.15607,-1.52929 -0.1393,-3.08844 -0.8861,-4.67745 -0.7468,-1.58897 -1.93416,-3.18721 -3.56207,-4.79472 l 1.56461,-1.39855 c 2.19546,1.89917 3.76796,3.89056 4.71749,5.97417 0.94953,2.08366 1.30233,4.32065 1.05839,6.71099 -0.17968,1.76065 -0.66996,3.44738 -1.47083,5.06021 -0.80087,1.61284 -1.84912,3.04136 -3.14477,4.28556 -1.59568,1.51225 -3.36885,2.6006 -5.31952,3.26504 -1.95065,0.66444 -4.02477,0.88453 -6.22237,0.66026 -1.78632,-0.1823 -3.47568,-0.64687 -5.06808,-1.39372 -1.59236,-0.74683 -3.02612,-1.74368 -4.3013,-2.99055 -1.62788,-1.60748 -2.82376,-3.44032 -3.58763,-5.49853 -0.76382,-2.05818 -1.03426,-4.17964 -0.81133,-6.36439 0.14561,-1.42648 0.59444,-2.96162 1.3465,-4.60543 0.75212,-1.64376 1.14324,-2.61344 1.17338,-2.90905 0.0341,-0.33411 -0.0251,-0.58038 -0.17781,-0.73883 -0.15261,-0.15838 -0.5135,-0.31208 -1.08266,-0.46109 l 0.15582,-1.71762 8.53304,0.3644 z" />
      <path
         id="path5670"
         style="font-weight:bold;font-size:39.68441772px;line-height:0%;font-family:'Imperial BT';-inkscape-font-specification:'Imperial BT Bold';letter-spacing:0.99211043px;word-spacing:0.98218936px;fill:#000000;stroke:#000000;stroke-opacity:1"
         d="m 186.76877,421.60467 c 0.62281,-2.09242 0.0114,-4.05691 -1.83438,-5.89348 -1.84574,-1.83652 -4.73103,-3.33891 -8.6559,-4.50717 -3.93724,-1.17189 -7.17758,-1.49279 -9.72102,-0.9627 -2.54341,0.53014 -4.13022,1.8538 -4.76042,3.97097 -0.62648,2.10484 -0.02,4.0746 1.81957,5.90929 1.83956,1.83472 4.72795,3.33803 8.66518,4.50994 3.94964,1.17561 7.19399,1.49434 9.73307,0.95618 2.53908,-0.53814 4.12371,-1.86582 4.7539,-3.98303 z m 1.89434,0.56385 c -0.56017,1.88197 -1.4233,3.55918 -2.5894,5.03163 -1.1661,1.47248 -2.58027,2.66894 -4.24249,3.58938 -1.77101,0.96895 -3.66287,1.55148 -5.67559,1.74761 -2.01271,0.19613 -4.02814,-0.006 -6.0463,-0.60686 -2.01813,-0.60069 -3.80994,-1.53163 -5.37543,-2.79281 -1.56546,-1.26117 -2.82463,-2.78161 -3.77752,-4.56132 -0.897,-1.69567 -1.43414,-3.47967 -1.61143,-5.35201 -0.17724,-1.8723 0.0124,-3.74324 0.56882,-5.61284 0.55281,-1.85717 1.41443,-3.51798 2.58486,-4.98244 1.17047,-1.4644 2.593,-2.655 4.26759,-3.5718 1.77102,-0.96891 3.65669,-1.55329 5.65701,-1.75314 2.00035,-0.19978 4.00959,6.6e-4 6.02773,0.60133 2.01815,0.60073 3.81925,1.53444 5.40329,2.80111 1.58404,1.26673 2.84631,2.78809 3.78681,4.56408 0.89568,1.65488 1.42999,3.41445 1.60291,5.27871 0.17291,1.86431 -0.0207,3.73743 -0.58086,5.61937 z" />
      <path
         id="path5672"
         style="font-weight:bold;font-size:39.68441772px;line-height:0%;font-family:'Imperial BT';-inkscape-font-specification:'Imperial BT Bold';letter-spacing:0.99211043px;word-spacing:0.98218936px;fill:#000000;stroke:#000000;stroke-opacity:1"
         d="m 191.6356,396.93658 c 1.00695,0.55489 1.88801,0.71591 2.64318,0.48306 0.75516,-0.23284 1.41954,-0.8697 1.99313,-1.9106 l 0.14028,-0.25456 1.35768,0.74815 -4.7508,8.62127 -1.35768,-0.74815 0.0561,-0.10183 c 0.56736,-1.02957 0.74592,-1.91571 0.53571,-2.65841 -0.21022,-0.7427 -0.82445,-1.3946 -1.84272,-1.95573 l -16.61461,-9.15557 c -0.97298,-0.53616 -1.78939,-0.68737 -2.44922,-0.45361 -0.65978,0.23378 -1.32716,0.90955 -2.00214,2.02731 l -1.27282,-0.70139 5.64858,-10.25049 20.15554,2.81015 -13.14157,-15.5384 5.52701,-10.02987 1.27283,0.7014 c -0.58444,1.1677 -0.79955,2.10007 -0.64533,2.79712 0.15423,0.69714 0.71219,1.31066 1.67387,1.84056 l 16.81827,9.2678 c 0.96167,0.52998 1.78275,0.6727 2.46324,0.42816 0.68046,-0.24448 1.3494,-0.92308 2.00682,-2.03581 l 1.35768,0.74816 -6.73341,12.21912 -1.35768,-0.74815 c 0.63823,-1.21173 0.88774,-2.17308 0.74854,-2.88406 -0.13922,-0.71092 -0.70665,-1.34072 -1.70227,-1.88939 l -17.92138,-9.87568 17.38979,20.55647 -1.02872,1.86681 -26.58381,-3.63118 z" />
      <path
         id="path5674"
         style="font-weight:bold;font-size:39.68441772px;line-height:0%;font-family:'Imperial BT';-inkscape-font-specification:'Imperial BT Bold';letter-spacing:0.99211043px;word-spacing:0.98218936px;fill:#000000;stroke:#000000;stroke-opacity:1"
         d="m 213.21752,361.56344 c 0.85346,0.77035 1.67439,1.12849 2.46279,1.07441 0.7884,-0.0541 1.58076,-0.52221 2.37708,-1.40445 l 0.19475,-0.21576 1.15073,1.03867 -6.59558,7.30717 -1.15073,-1.03868 0.0779,-0.0863 c 0.78766,-0.87264 1.16404,-1.6945 1.12915,-2.4656 -0.0349,-0.77108 -0.48387,-1.54613 -1.34692,-2.32514 l -14.08211,-12.71078 c -0.82468,-0.74436 -1.58491,-1.07817 -2.2807,-1.00142 -0.69576,0.0768 -1.49993,0.58214 -2.41252,1.51603 l -1.07882,-0.97376 7.842,-8.68805 18.97967,7.34268 -9.2421,-18.13081 7.67321,-8.50105 1.07881,0.97375 c -0.83586,1.00321 -1.25839,1.86173 -1.26758,2.57558 -0.009,0.71393 0.39376,1.43874 1.20887,2.17443 l 14.25472,12.86658 c 0.81509,0.73576 1.58181,1.06237 2.30018,0.97984 0.71832,-0.0825 1.52466,-0.59021 2.41901,-1.52321 l 1.15074,1.03867 -9.34807,10.35661 -1.15074,-1.03867 c 0.8983,-1.03377 1.36095,-1.91265 1.38793,-2.63662 0.027,-0.72392 -0.38149,-1.46674 -1.22535,-2.22846 l -15.18969,-13.71051 12.23088,23.98705 -1.42817,1.58226 -25.05012,-9.61127 z" />
      <path
         id="path5676"
         style="font-weight:bold;font-size:39.68441772px;line-height:0%;font-family:'Imperial BT';-inkscape-font-specification:'Imperial BT Bold';letter-spacing:0.99211043px;word-spacing:0.98218936px;fill:#000000;stroke:#000000;stroke-opacity:1"
         d="m 245.98519,329.96834 c 0.71006,0.88776 1.43177,1.34025 2.16512,1.35745 0.73334,0.0172 1.63367,-0.39274 2.701,-1.22991 l 0.96828,1.21057 -11.24316,8.99287 -0.96827,-1.21057 c 1.06328,-0.88356 1.66708,-1.68494 1.81139,-2.40416 0.14432,-0.71921 -0.13453,-1.51765 -0.83653,-2.39531 L 228.5885,319.29336 c -0.70199,-0.87764 -1.42218,-1.32306 -2.16059,-1.33626 -0.73838,-0.0132 -1.65031,0.39782 -2.7358,1.23293 l -0.90776,-1.13491 11.24316,-8.99287 0.90776,1.13491 c -1.05319,0.87552 -1.64943,1.67085 -1.7887,2.386 -0.13926,0.71521 0.1421,1.51163 0.84409,2.38927 z" />
      <path
         id="path5678"
         style="font-weight:bold;font-size:39.68441772px;line-height:0%;font-family:'Imperial BT';-inkscape-font-specification:'Imperial BT Bold';letter-spacing:0.99211043px;word-spacing:0.98218936px;fill:#000000;stroke:#000000;stroke-opacity:1"
         d="m 254.55477,329.42371 -4.8902,-7.32112 1.52048,-0.93069 c 1.64837,1.50527 3.46072,2.38763 5.43705,2.64707 1.97632,0.25946 3.82389,-0.13685 5.54269,-1.18894 1.52046,-0.93067 2.51219,-2.02616 2.97517,-3.28647 0.46295,-1.26029 0.33026,-2.4854 -0.39809,-3.67535 -0.52605,-0.85939 -1.23053,-1.41645 -2.11345,-1.67119 -0.88293,-0.25471 -2.3589,-0.24109 -4.42791,0.0408 l -4.14231,0.58168 c -2.52276,0.33251 -4.51979,0.23719 -5.9911,-0.28596 -1.4713,-0.52312 -2.67903,-1.55594 -3.62321,-3.09847 -1.27462,-2.08237 -1.56235,-4.3031 -0.8632,-6.66219 0.69918,-2.35905 2.21115,-4.25008 4.53593,-5.67311 1.223,-0.74856 2.64332,-1.29231 4.26097,-1.63123 1.61766,-0.33885 2.48157,-0.54202 2.59176,-0.60949 0.27544,-0.16857 0.44842,-0.39941 0.51895,-0.69252 0.0705,-0.29304 0.0386,-0.64834 -0.0958,-1.06592 l 1.38826,-0.84976 4.43968,6.73357 -1.55353,0.95091 c -1.67583,-1.35212 -3.40376,-2.14604 -5.1838,-2.38178 -1.78005,-0.23568 -3.4303,0.11181 -4.95078,1.04246 -1.15688,0.70816 -1.91896,1.59114 -2.28624,2.64895 -0.36727,1.05787 -0.26429,2.05505 0.30895,2.99155 0.50581,0.82636 1.21502,1.35403 2.12762,1.58299 0.91261,0.22901 2.59139,0.16319 5.03635,-0.19744 l 3.96964,-0.56686 c 2.38065,-0.36666 4.38228,-0.25145 6.00491,0.34565 1.6226,0.59715 2.91948,1.689 3.89064,3.27556 1.4095,2.30277 1.70548,4.70399 0.88793,7.20368 -0.81758,2.4997 -2.60911,4.59593 -5.37459,6.28869 -1.50947,0.92394 -3.18354,1.58514 -5.02221,1.98358 -1.83869,0.39846 -2.79108,0.61791 -2.85718,0.65837 -0.30851,0.18884 -0.49021,0.43637 -0.5451,0.7426 -0.0549,0.30623 0.0131,0.72657 0.20391,1.26104 z" />
      <path
         id="path5680"
         style="font-weight:bold;font-size:39.68441772px;line-height:0%;font-family:'Imperial BT';-inkscape-font-specification:'Imperial BT Bold';letter-spacing:0.99211043px;word-spacing:0.98218936px;fill:#000000;stroke:#000000;stroke-opacity:1"
         d="m 278.16702,315.35915 -3.69501,-7.99123 1.64647,-0.68349 c 1.39485,1.74281 3.04835,2.89568 4.96048,3.45864 1.91213,0.56296 3.79881,0.45812 5.66004,-0.31453 1.64646,-0.68348 2.79615,-1.61183 3.44907,-2.78503 0.6529,-1.17319 0.7119,-2.40406 0.17701,-3.69261 -0.38633,-0.9306 -0.99585,-1.59022 -1.82854,-1.97888 -0.83272,-0.38862 -2.29293,-0.60418 -4.38063,-0.64669 l -4.1824,-0.0681 c -2.54379,-0.063 -4.50184,-0.46697 -5.87416,-1.21208 -1.37231,-0.74507 -2.40517,-1.95278 -3.09857,-3.62313 -0.93608,-2.25492 -0.87575,-4.4934 0.18098,-6.71544 1.05674,-2.22199 2.84382,-3.85552 5.36125,-4.9006 1.32433,-0.54973 2.81182,-0.86651 4.46247,-0.95033 1.65064,-0.0838 2.53562,-0.15041 2.65493,-0.19997 0.29827,-0.12379 0.50497,-0.32499 0.62012,-0.60361 0.11513,-0.27854 0.1387,-0.63451 0.0707,-1.06788 l 1.5033,-0.62406 3.34111,7.34089 -1.68226,0.69835 c -1.44573,-1.59577 -3.02955,-2.64819 -4.75145,-3.15727 -1.72192,-0.50902 -3.40611,-0.4218 -5.05257,0.26166 -1.25275,0.52007 -2.1426,1.27412 -2.66957,2.26213 -0.52697,0.98807 -0.57995,1.98915 -0.15896,3.00325 0.37146,0.89485 0.9902,1.52616 1.85623,1.89395 0.86602,0.36784 2.53468,0.5633 5.00599,0.5864 l 4.00951,0.0559 c 2.40871,0.007 4.36823,0.43156 5.87855,1.2732 1.5103,0.84168 2.62206,2.12154 3.33529,3.83957 1.03512,2.49358 0.95493,4.91164 -0.24057,7.2542 -1.19553,2.34258 -3.29062,4.13544 -6.28527,5.3786 -1.63455,0.67854 -3.39093,1.07197 -5.26916,1.1803 -1.87824,0.10833 -2.85315,0.17736 -2.92473,0.20707 -0.33407,0.13868 -0.55198,0.35502 -0.65372,0.64902 -0.10175,0.29401 -0.0998,0.71981 0.006,1.27741 z" />
      <path
         id="path5682"
         style="font-weight:bold;font-size:39.68441772px;line-height:0%;font-family:'Imperial BT';-inkscape-font-specification:'Imperial BT Bold';letter-spacing:0.99211043px;word-spacing:0.98218936px;fill:#000000;stroke:#000000;stroke-opacity:1"
         d="m 311.76493,297.99599 c 0.30191,1.09597 0.78635,1.79662 1.45335,2.10195 0.66697,0.30534 1.65602,0.28412 2.96715,-0.0637 l 0.4117,1.4945 -13.88018,3.82368 -0.41171,-1.4945 c 1.32574,-0.39201 2.19687,-0.88992 2.6134,-1.49374 0.41653,-0.60382 0.47556,-1.44749 0.17708,-2.53101 l -5.09996,-18.51314 c -0.29848,-1.08349 -0.78433,-1.77706 -1.45754,-2.0807 -0.67321,-0.3036 -1.67331,-0.28602 -3.00032,0.0527 l -0.38597,-1.4011 13.88018,-3.82368 0.38597,1.4011 c -1.31328,0.38861 -2.17508,0.88395 -2.58537,1.48602 -0.41031,0.60214 -0.46622,1.44494 -0.16773,2.52843 z" />
      <path
         id="path5684"
         style="font-weight:bold;font-size:39.68441772px;line-height:0%;font-family:'Imperial BT';-inkscape-font-specification:'Imperial BT Bold';letter-spacing:0.99211043px;word-spacing:0.98218936px;fill:#000000;stroke:#000000;stroke-opacity:1"
         d="m 334.1489,297.26497 c 2.16487,-0.28192 3.71093,-1.63941 4.6382,-4.07249 0.92723,-2.43307 1.12645,-5.67998 0.59766,-9.74074 -0.53049,-4.07354 -1.55504,-7.16435 -3.07363,-9.27242 -1.51863,-2.10802 -3.37319,-3.01942 -5.56367,-2.73419 -2.1777,0.28361 -3.73059,1.63874 -4.65867,4.06538 -0.92809,2.42669 -1.12689,5.67681 -0.59641,9.75035 0.53214,4.08638 1.5603,7.17997 3.08449,9.28077 1.52418,2.10082 3.38152,3.0086 5.57203,2.72334 z m 0.25523,1.95992 c -1.94712,0.25356 -3.83039,0.14707 -5.6498,-0.31946 -1.81943,-0.46654 -3.48757,-1.27194 -5.00443,-2.41621 -1.60541,-1.22392 -2.90694,-2.71539 -3.90461,-4.47442 -0.99767,-1.75901 -1.63246,-3.68253 -1.90437,-5.77056 -0.27191,-2.088 -0.15008,-4.10354 0.36549,-6.04661 0.51557,-1.94303 1.39256,-3.71169 2.63097,-5.30597 1.18436,-1.50903 2.59575,-2.72523 4.23418,-3.64861 1.63842,-0.92331 3.42479,-1.51093 5.3591,-1.76285 1.92148,-0.25019 3.78915,-0.13842 5.60301,0.33532 1.81384,0.47381 3.48003,1.28923 4.99858,2.44628 1.60538,1.22396 2.90608,2.70902 3.90211,4.45521 0.99597,1.74623 1.62993,3.66334 1.90187,5.75134 0.27188,2.08804 0.1513,4.11318 -0.36174,6.07544 -0.5131,1.96228 -1.38967,3.73413 -2.62972,5.31558 -1.14762,1.49125 -2.53785,2.69492 -4.17069,3.61102 -1.63287,0.91611 -3.42285,1.50094 -5.36995,1.7545 z" />
      <path
         id="path5686"
         style="font-weight:bold;font-size:39.68441772px;line-height:0%;font-family:'Imperial BT';-inkscape-font-specification:'Imperial BT Bold';letter-spacing:0.99211043px;word-spacing:0.98218936px;fill:#000000;stroke:#000000;stroke-opacity:1"
         d="m 358.51127,291.7723 c -0.0675,1.16068 0.16358,2.02813 0.69311,2.60237 0.52951,0.57425 1.38105,0.89547 2.55462,0.96366 l 0.29017,0.0169 -0.0899,1.54756 -9.78833,-0.56877 0.0899,-1.54756 0.11607,0.007 c 1.17356,0.0682 2.05013,-0.15261 2.6297,-0.66241 0.57957,-0.50979 0.90307,-1.34503 0.97052,-2.5057 l 1.18813,-20.44717 c -0.35842,-0.51251 -0.82011,-0.91783 -1.38508,-1.21596 -0.56498,-0.29807 -1.24538,-0.50259 -2.0412,-0.61356 l 0.0843,-1.45083 10.40735,0.60474 14.3163,21.85274 0.93522,-16.09464 c 0.0682,-1.17355 -0.17521,-2.05143 -0.73012,-2.63364 -0.55496,-0.58217 -1.4579,-0.90961 -2.70882,-0.98232 l -0.11607,-0.007 0.0843,-1.45084 9.82702,0.57102 -0.0843,1.45084 c -1.22668,-0.0454 -2.13965,0.18949 -2.73891,0.70459 -0.59932,0.51515 -0.93231,1.3466 -0.99897,2.49435 l -1.37023,23.58098 -5.06827,-0.29451 -15.99192,-24.41516 z" />
      <path
         id="path5688"
         style="font-weight:bold;font-size:39.68441772px;line-height:0%;font-family:'Imperial BT';-inkscape-font-specification:'Imperial BT Bold';letter-spacing:0.99211043px;word-spacing:0.98218936px;fill:#000000;stroke:#000000;stroke-opacity:1"
         d="m 414.86048,305.06692 c 2.06954,0.69506 4.05407,0.15214 5.95359,-1.62873 1.89948,-1.78089 3.5011,-4.61231 4.80487,-8.49426 1.30783,-3.8942 1.741,-7.12145 1.2995,-9.68176 -0.44155,-2.56027 -1.70934,-4.19206 -3.80337,-4.89536 -2.08183,-0.69915 -4.07145,-0.16136 -5.96888,1.61338 -1.89746,1.77478 -3.50011,4.60926 -4.80795,8.50345 -1.31198,3.90645 -1.74312,7.13779 -1.2934,9.69401 0.4497,2.55623 1.72157,4.18599 3.81564,4.88927 z m -0.62925,1.87363 c -1.8614,-0.62515 -3.50764,-1.54597 -4.93874,-2.76246 -1.43112,-1.21651 -2.57778,-2.67134 -3.43998,-4.36451 -0.90689,-1.80357 -1.42342,-3.71451 -1.54957,-5.73282 -0.12617,-2.01831 0.14594,-4.0255 0.81633,-6.0216 0.67037,-1.99607 1.66293,-3.75449 2.97769,-5.27527 1.31474,-1.52074 2.87796,-2.72638 4.68967,-3.61694 1.72578,-0.8376 3.52735,-1.3125 5.40471,-1.4247 1.87733,-0.11216 3.74056,0.14226 5.58972,0.76327 1.83686,0.61693 3.46677,1.53567 4.88973,2.75622 1.4229,1.22059 2.56341,2.68358 3.42154,4.38898 0.90686,1.80358 1.42544,3.7084 1.55575,5.71445 0.13023,2.00607 -0.13982,4.00715 -0.81017,6.00323 -0.67041,1.99609 -1.66606,3.76369 -2.98694,5.30282 -1.32095,1.53912 -2.8852,2.74783 -4.69276,3.62613 -1.68497,0.83771 -3.46202,1.31062 -5.33116,1.41874 -1.86919,0.10811 -3.73446,-0.15041 -5.59582,-0.77554 z" />
      <path
         id="path5690"
         style="font-weight:bold;font-size:39.68441772px;line-height:0%;font-family:'Imperial BT';-inkscape-font-specification:'Imperial BT Bold';letter-spacing:0.99211043px;word-spacing:0.98218936px;fill:#000000;stroke:#000000;stroke-opacity:1"
         d="m 439.16615,310.84305 c -0.57225,1.01205 -0.74732,1.89251 -0.52521,2.64139 0.2221,0.74887 0.8448,1.41261 1.8681,1.99122 l 0.25301,0.14306 -0.76299,1.3494 -8.53494,-4.82596 0.763,-1.34939 0.1012,0.0572 c 1.02329,0.57861 1.90742,0.76688 2.65238,0.56482 0.74496,-0.20206 1.40356,-0.80912 1.97581,-1.82116 l 10.0811,-17.82891 c -0.0957,-0.61803 -0.33146,-1.18538 -0.70712,-1.70205 -0.37569,-0.51662 -0.89623,-1.00017 -1.56161,-1.45063 l 0.71531,-1.26506 9.07469,5.13116 3.2155,25.92603 7.93517,-14.03372 c 0.57857,-1.02329 0.74716,-1.91854 0.50578,-2.68576 -0.24146,-0.76721 -0.90755,-1.45919 -1.99827,-2.07596 l -0.10121,-0.0572 0.71531,-1.26506 8.56867,4.84503 -0.71531,1.26506 c -1.08103,-0.58154 -2.00403,-0.77325 -2.76899,-0.57511 -0.76505,0.19816 -1.4305,0.79763 -1.99635,1.79842 l -11.62616,20.56143 -4.41928,-2.49881 -3.58978,-28.96472 z" />
      <path
         id="path5692"
         style="font-weight:bold;font-size:39.68441772px;line-height:0%;font-family:'Imperial BT';-inkscape-font-specification:'Imperial BT Bold';letter-spacing:0.99211043px;word-spacing:0.98218936px;fill:#000000;stroke:#000000;stroke-opacity:1"
         d="m 484.91312,334.21274 6.64026,6.48507 4.97576,-11.44576 z m -14.68164,1.80422 1.0831,-1.10902 c 0.70968,0.53058 1.46442,0.81626 2.26422,0.85705 0.79981,0.0408 1.76793,-0.16935 2.90437,-0.63041 l 23.67306,-9.70736 3.43797,3.35761 -9.20358,23.56781 c -0.55872,1.42253 -0.79946,2.50104 -0.72224,3.23552 0.0772,0.73445 0.42602,1.45885 1.04654,2.1732 l -1.0831,1.10902 -10.42479,-10.18114 1.09696,-1.09549 c 0.7576,0.72184 1.44793,1.1613 2.07099,1.31838 0.62303,0.15705 1.14666,0.0184 1.57089,-0.41595 0.27978,-0.28651 0.57504,-0.8107 0.88578,-1.57258 0.0887,-0.2203 0.15975,-0.39471 0.21306,-0.52322 l 1.39986,-3.2915 -8.01268,-7.8254 -3.17494,1.50373 c -0.54502,0.26223 -0.92857,0.46545 -1.15067,0.60967 -0.22211,0.14422 -0.40537,0.29027 -0.54978,0.43814 -0.50545,0.51754 -0.69508,1.09073 -0.56888,1.71956 0.12619,0.62883 0.56874,1.35897 1.32765,2.19043 l -1.06923,1.12256 z" />
      <path
         id="path5694"
         style="font-weight:bold;font-size:39.68441772px;line-height:0%;font-family:'Imperial BT';-inkscape-font-specification:'Imperial BT Bold';letter-spacing:0.99211043px;word-spacing:0.98218936px;fill:#000000;stroke:#000000;stroke-opacity:1"
         d="m 507.85628,361.62219 c -2.21732,1.56295 -3.53271,3.28434 -3.94617,5.16418 -0.41347,1.87982 0.0869,3.82281 1.50096,5.82896 1.52572,2.1645 3.2649,3.33696 5.21754,3.51738 1.9526,0.18038 4.19594,-0.62253 6.73004,-2.40875 l 10.42136,-7.34587 c 0.9608,-0.67729 1.49627,-1.41429 1.60641,-2.21102 0.11007,-0.79673 -0.19957,-1.71247 -0.92891,-2.74721 l -0.067,-0.095 1.18785,-0.83729 5.6043,7.95064 -1.18785,0.8373 c -0.72076,-0.97764 -1.46923,-1.54058 -2.24541,-1.68884 -0.77625,-0.14828 -1.63422,0.10879 -2.5739,0.77119 l -10.3897,7.32355 c -3.15705,2.22533 -6.10474,3.09404 -8.84307,2.60615 -2.73837,-0.48793 -5.23511,-2.33152 -7.49021,-5.53077 -2.59749,-3.68497 -3.69805,-6.89991 -3.3017,-9.64484 0.39634,-2.74494 2.34725,-5.35288 5.85272,-7.82383 l 10.21548,-7.20075 c 0.89746,-0.63261 1.38446,-1.30384 1.461,-2.01369 0.0765,-0.70983 -0.23997,-1.61284 -0.94942,-2.70905 l 1.18784,-0.83729 8.16085,11.57753 -1.18785,0.8373 c -0.81751,-1.11488 -1.58268,-1.76879 -2.29551,-1.96172 -0.7129,-0.19292 -1.52863,0.0344 -2.4472,0.68188 z" />
      <path
         id="path5696"
         style="font-weight:bold;font-size:39.68441772px;line-height:0%;font-family:'Imperial BT';-inkscape-font-specification:'Imperial BT Bold';letter-spacing:0.99211043px;word-spacing:0.98218936px;fill:#000000;stroke:#000000;stroke-opacity:1"
         d="m 541.31067,385.54613 -19.2685,8.55513 c -1.10983,0.49275 -1.77863,1.01584 -2.0064,1.56927 -0.22779,0.55342 -0.11364,1.34372 0.34243,2.37091 1.34721,3.0343 3.26741,4.89197 5.76058,5.573 2.49315,0.681 5.59337,0.1985 9.30069,-1.44751 3.74269,-1.66176 6.19029,-3.646 7.34279,-5.95273 1.15245,-2.30674 1.04198,-5.00678 -0.33143,-8.10012 z m -28.34357,1.19936 1.41681,-0.62905 c 0.55963,1.16494 1.16238,1.89377 1.80825,2.18651 0.64587,0.29274 1.47649,0.21369 2.49187,-0.23713 l 17.55062,-7.7924 c 1.01535,-0.45082 1.62941,-1.00967 1.84217,-1.67656 0.21271,-0.66688 0.078,-1.60705 -0.40424,-2.8205 l 1.32825,-0.58974 4.91448,11.06877 c 1.34719,3.03431 2.20608,5.39852 2.57668,7.09264 0.37052,1.69411 0.46238,3.31762 0.27558,4.87053 -0.28293,2.38706 -1.15006,4.5247 -2.60141,6.41292 -1.4514,1.88819 -3.35776,3.35651 -5.71906,4.40495 -2.38498,1.05889 -4.76313,1.49641 -7.13448,1.31257 -2.37138,-0.18388 -4.53397,-0.97987 -6.48776,-2.38796 -1.27721,-0.90291 -2.41298,-2.05232 -3.40732,-3.44826 -0.99436,-1.39597 -2.17301,-3.62881 -3.53595,-6.69853 z" />
      <path
         id="path5698"
         style="font-weight:bold;font-size:39.68441772px;line-height:0%;font-family:'Imperial BT';-inkscape-font-specification:'Imperial BT Bold';letter-spacing:0.99211043px;word-spacing:0.98218936px;fill:#000000;stroke:#000000;stroke-opacity:1"
         d="m 533.34906,427.12091 c -1.09581,0.30248 -1.79621,0.78729 -2.1012,1.45444 -0.30499,0.66713 -0.28325,1.65617 0.0652,2.96712 l -1.49429,0.41248 -3.83089,-13.8782 1.49428,-0.41248 c 0.3927,1.32553 0.89107,2.19641 1.49511,2.61263 0.60403,0.41621 1.44772,0.4748 2.53109,0.17575 l 18.51049,-5.10957 c 1.08333,-0.29905 1.77665,-0.78526 2.07994,-1.45863 0.30325,-0.67336 0.28516,-1.67346 -0.0543,-3.00029 l 1.4009,-0.3867 3.83089,13.8782 -1.40089,0.3867 c -0.38929,-1.31309 -0.88508,-2.17462 -1.48737,-2.58461 -0.60235,-0.40999 -1.44518,-0.46547 -2.52852,-0.16641 z" />
      <path
         id="path5700"
         style="font-weight:bold;font-size:39.68441772px;line-height:0%;font-family:'Imperial BT';-inkscape-font-specification:'Imperial BT Bold';letter-spacing:0.99211043px;word-spacing:0.98218936px;fill:#000000;stroke:#000000;stroke-opacity:1"
         d="m 557.95672,439.92993 -0.3361,-2.39871 c -0.23485,-1.6759 -0.82022,-2.92114 -1.75612,-3.73571 -0.93595,-0.81457 -2.23791,-1.21588 -3.90588,-1.20392 l -0.25275,-1.80383 7.1459,-0.66863 3.61642,25.81015 -7.05448,1.32108 -0.25543,-1.82303 c 1.60702,-0.44694 2.7481,-1.19382 3.42324,-2.24063 0.67508,-1.04684 0.89433,-2.4146 0.65775,-4.10328 l -0.32803,-2.34114 -21.33895,2.98993 c -1.11301,0.15593 -1.864,0.54487 -2.25297,1.16682 -0.38898,0.62191 -0.50036,1.6191 -0.33414,2.99156 l -1.53517,0.21511 -1.99777,-14.25795 1.53517,-0.2151 c 0.21739,1.36527 0.59854,2.29345 1.14347,2.78453 0.54492,0.49106 1.37388,0.65863 2.48689,0.50268 z" />
    </g>
    <ellipse
       ry="87.799095"
       rx="93.102394"
       cy="159.61334"
       cx="140.24284"
       transform="matrix(1.1096374,0,0,1.1959023,194.59979,78.577868)"
       id="path3957"
       style="fill:#ffffff;fill-opacity:1;stroke:#000000;stroke-width:5;stroke-linecap:square;stroke-linejoin:miter;stroke-miterlimit:4;stroke-dasharray:none;stroke-dashoffset:0;stroke-opacity:1" />
    <g
       id="text5293"
       style="font-style:normal;font-variant:normal;font-weight:normal;font-stretch:normal;font-size:20px;line-height:0%;font-family:'Swis721 Hv BT';-inkscape-font-specification:'Swis721 Hv BT';letter-spacing:0px;word-spacing:0px;fill:#000000;fill-opacity:1;stroke:#000000;stroke-width:0.5172385;stroke-miterlimit:4;stroke-opacity:0"
       transform="matrix(0.60305556,0,0,0.59427397,135.3441,-12.169813)">
      <path
         id="path5582"
         style="font-size:31.03430939px;line-height:0%;font-family:'Imperial BT';-inkscape-font-specification:'Imperial BT';letter-spacing:3.10343099px;fill:#000000;stroke:#000000;stroke-opacity:1"
         d="m 173.69671,519.79902 c 0.72685,2.96304 0.78019,5.31117 0.16001,7.0444 -0.62023,1.73321 -1.91147,2.84051 -3.87373,3.3219 -1.33437,0.32732 -2.59469,0.119 -3.78095,-0.62496 -1.1863,-0.74399 -2.1947,-1.96067 -3.02519,-3.65006 l -5.96861,6.6443 c -0.65255,0.73215 -1.06081,1.3576 -1.22481,1.87634 -0.16401,0.51869 -0.16909,1.11284 -0.0152,1.78245 l -1.1185,0.27438 -1.24195,-5.06269 8.25499,-9.21793 c -0.0337,-0.13737 -0.091,-0.34956 -0.17176,-0.63658 -0.0808,-0.28704 -0.13929,-0.50414 -0.17538,-0.6513 -0.0554,-0.22567 -0.11128,-0.4642 -0.16774,-0.71559 -0.0565,-0.2514 -0.13017,-0.62599 -0.22107,-1.12378 l -6.4497,1.5666 c -0.86341,0.21179 -1.42307,0.58053 -1.67899,1.10619 -0.25592,0.52566 -0.25631,1.30849 -0.001,2.34851 l 0.0361,0.14717 -1.1185,0.27438 -2.21672,-9.0363 1.1185,-0.27439 c 0.27012,0.97392 0.63358,1.61809 1.09038,1.93251 0.45679,0.31441 1.10708,0.36813 1.95087,0.16114 l 14.67296,-3.59947 c 0.84376,-0.20699 1.39477,-0.55799 1.65302,-1.05302 0.25821,-0.49502 0.2829,-1.23181 0.0741,-2.21036 l 1.07435,-0.26355 z m -2.47758,-3.2305 -8.47706,2.07953 0.73289,2.98758 c 0.50543,2.06038 1.23041,3.51042 2.17494,4.35012 0.9445,0.83968 2.12809,1.08502 3.55076,0.73604 1.47169,-0.36104 2.42574,-1.12558 2.86216,-2.2936 0.43637,-1.16805 0.3874,-2.84114 -0.1469,-5.01927 z" />
      <path
         id="path5584"
         style="font-size:31.03430939px;line-height:0%;font-family:'Imperial BT';-inkscape-font-specification:'Imperial BT';letter-spacing:3.10343099px;fill:#000000;stroke:#000000;stroke-opacity:1"
         d="m 156.14339,540.30667 1.07859,-0.40371 c 0.38251,0.9355 0.81904,1.53258 1.30957,1.79123 0.49053,0.25865 1.14263,0.2357 1.9563,-0.0688 l 14.14934,-5.29607 c 0.81365,-0.30455 1.31967,-0.71778 1.51806,-1.23969 0.19835,-0.52189 0.13643,-1.25649 -0.18576,-2.20379 l 1.03601,-0.38777 6.36379,17.0019 -4.61237,1.72641 -0.42497,-1.13536 c 1.08813,-0.57989 1.74919,-1.23452 1.98319,-1.9639 0.23394,-0.7294 0.0889,-1.79423 -0.43522,-3.19449 l -2.26292,-6.04575 -7.59267,2.84192 1.22176,3.26414 c 0.37891,1.01235 0.84645,1.64906 1.40262,1.91012 0.55613,0.26106 1.39298,0.24177 2.51053,-0.0579 l 0.3984,1.0644 -7.29464,2.73037 -0.3984,-1.06439 c 1.068,-0.51842 1.73579,-1.05422 2.00336,-1.60741 0.26755,-0.5532 0.22426,-1.30286 -0.12986,-2.24898 l -1.27488,-3.40605 -6.1309,2.29478 c -1.04075,0.38954 -1.65674,0.81157 -1.84797,1.26609 -0.19124,0.4545 -0.0921,1.20213 0.29747,2.24287 l 1.62016,4.32854 c 0.43912,1.17318 1.07828,2.00183 1.91749,2.48596 0.83919,0.4841 1.98302,0.68699 3.4315,0.60868 l 0.41434,1.10697 -5.53064,1.00221 z" />
      <path
         id="path5586"
         style="font-size:31.03430939px;line-height:0%;font-family:'Imperial BT';-inkscape-font-specification:'Imperial BT';letter-spacing:3.10343099px;fill:#000000;stroke:#000000;stroke-opacity:1"
         d="m 186.28798,559.39582 -8.49003,4.3324 c 0.16696,0.52724 0.33008,0.99691 0.48934,1.409 0.15924,0.41209 0.31922,0.77561 0.47995,1.09056 0.82651,1.61972 1.85975,2.6888 3.0997,3.20725 1.23992,0.51843 2.53926,0.43097 3.89805,-0.26239 1.49372,-0.76225 2.3584,-1.79041 2.59404,-3.0845 0.2356,-1.2941 -0.14939,-2.92647 -1.15498,-4.89713 z m -15.17136,7.74183 c -0.79187,0.40408 -1.25211,0.89128 -1.38071,1.46162 -0.12861,0.57032 0.0505,1.3324 0.5372,2.28624 l 0.0689,0.13498 -1.02582,0.52346 -4.22907,-8.28756 1.02582,-0.52346 c 0.48617,0.88606 0.98762,1.42976 1.50433,1.6311 0.5167,0.20133 1.16199,0.10455 1.93586,-0.29035 l 13.45716,-6.86708 c 0.77384,-0.39489 1.22972,-0.86286 1.36762,-1.4039 0.13786,-0.54103 -0.007,-1.26386 -0.43457,-2.16849 l 0.98533,-0.5028 4.29795,8.42253 c 1.3316,2.60955 1.84689,4.84175 1.54587,6.69662 -0.30108,1.85486 -1.41444,3.27362 -3.34008,4.25628 -1.79071,0.91376 -3.59707,0.88001 -5.4191,-0.10127 -1.82205,-0.9813 -3.40807,-2.79471 -4.75806,-5.44024 -0.16991,-0.33295 -0.33889,-0.69188 -0.50694,-1.07679 -0.16808,-0.38492 -0.3513,-0.82731 -0.54966,-1.32718 z" />
      <path
         id="path5588"
         style="font-size:31.03430939px;line-height:0%;font-family:'Imperial BT';-inkscape-font-specification:'Imperial BT';letter-spacing:3.10343099px;fill:#000000;stroke:#000000;stroke-opacity:1"
         d="m 201.78898,589.35398 c 0.77006,-0.52036 1.20363,-1.08765 1.3007,-1.70187 0.097,-0.61423 -0.12878,-1.32732 -0.67738,-2.13926 l -0.0509,-0.0753 0.91658,-0.61933 4.24201,6.27792 -0.91658,0.61934 c -0.55409,-0.7839 -1.13202,-1.23772 -1.73377,-1.36145 -0.60182,-0.12375 -1.2752,0.0661 -2.02015,0.56947 l -8.26175,5.58248 c -2.56141,1.73072 -4.873,2.40567 -6.93477,2.02486 -2.06181,-0.38084 -3.93827,-1.82265 -5.62941,-4.32544 -1.70246,-2.51955 -2.41282,-4.77978 -2.13108,-6.78071 0.28173,-2.00093 1.54844,-3.76213 3.80013,-5.2836 l 9.25366,-6.25271 c 0.71985,-0.48641 1.1145,-1.00302 1.18397,-1.54984 0.0694,-0.5468 -0.16474,-1.25423 -0.7025,-2.12229 l 0.91658,-0.61933 5.07344,7.50839 -0.91658,0.61933 c -0.6163,-0.87596 -1.20163,-1.39487 -1.756,-1.55674 -0.55441,-0.16185 -1.19573,0.003 -1.92395,0.49532 l -8.97743,6.06607 c -1.82479,1.233 -2.8966,2.5699 -3.21545,4.01068 -0.31885,1.44077 0.10429,3.02333 1.26943,4.74767 1.27259,1.88337 2.68086,2.94353 4.22481,3.18049 1.54393,0.23694 3.33711,-0.33461 5.37954,-1.71467 z" />
      <path
         id="path5590"
         style="font-size:31.03430939px;line-height:0%;font-family:'Imperial BT';-inkscape-font-specification:'Imperial BT';letter-spacing:3.10343099px;fill:#000000;stroke:#000000;stroke-opacity:1"
         d="m 204.39002,604.99059 -5.02534,4.40502 c -0.78249,0.68589 -1.15855,1.26071 -1.1282,1.72445 0.0303,0.46374 0.47835,1.18941 1.34405,2.17701 1.39841,1.59534 2.74542,2.55732 4.04105,2.88595 1.29559,0.32862 2.49417,0.0101 3.59574,-0.95542 1.07874,-0.94561 1.60805,-2.05441 1.58794,-3.32643 -0.0202,-1.27202 -0.59625,-2.55377 -1.72828,-3.84523 z m 1.29906,-1.13871 2.00773,2.29046 c 1.19863,1.36744 2.38418,2.17205 3.55667,2.41383 1.17244,0.24177 2.27526,-0.0902 3.30846,-0.9958 0.97998,-0.85903 1.43076,-1.8352 1.35237,-2.9285 -0.0785,-1.0933 -0.68701,-2.28949 -1.8257,-3.58856 l -2.25745,-2.57534 z m -13.48652,3.58 0.86604,-0.75914 c 0.68871,0.73971 1.30821,1.14377 1.85853,1.21218 0.5503,0.0684 1.15212,-0.18372 1.80546,-0.75641 l 11.36114,-9.95874 c 0.65331,-0.57267 0.98045,-1.13818 0.98139,-1.69652 9.2e-4,-0.55832 -0.31685,-1.22352 -0.95329,-1.9956 l 0.83186,-0.72917 7.03205,8.02231 c 1.65809,1.89162 2.58646,3.64039 2.78511,5.2463 0.19859,1.6059 -0.34024,2.96822 -1.61649,4.08696 -0.97243,0.85237 -2.0752,1.23799 -3.30832,1.15688 -1.23317,-0.0811 -2.58243,-0.62803 -4.04779,-1.64075 1.11816,1.72008 1.66387,3.3005 1.63712,4.74125 -0.0268,1.44074 -0.62512,2.67387 -1.79502,3.69939 -1.32187,1.15867 -2.92215,1.54379 -4.80084,1.15535 -1.87871,-0.38847 -3.59718,-1.47154 -5.15541,-3.24919 z" />
      <path
         id="path5592"
         style="font-size:31.03430939px;line-height:0%;font-family:'Imperial BT';-inkscape-font-specification:'Imperial BT';letter-spacing:3.10343099px;fill:#000000;stroke:#000000;stroke-opacity:1"
         d="m 208.98916,626.0294 0.77533,-0.85158 c 0.76741,0.6577 1.42836,0.98964 1.98288,0.99583 0.55451,0.006 1.12421,-0.31192 1.70911,-0.95435 l 10.17109,-11.17144 c 0.58488,-0.64241 0.84644,-1.24107 0.78469,-1.79599 -0.0618,-0.55489 -0.45223,-1.1802 -1.17134,-1.87593 l 0.74472,-0.81797 6.92473,6.30464 -0.74473,0.81797 -0.11205,-0.10202 c -0.81425,-0.74131 -1.51527,-1.1268 -2.10304,-1.15647 -0.58781,-0.0297 -1.18096,0.2842 -1.77944,0.94155 l -9.6712,10.6224 c -0.74813,0.8217 -1.09841,1.47279 -1.05086,1.95328 0.0476,0.48047 0.56434,1.16959 1.5504,2.06734 l 2.29703,2.09135 c 1.05327,0.95895 2.08394,1.4738 3.09202,1.54455 1.00805,0.0707 2.25853,-0.29359 3.75145,-1.09298 l 0.82917,0.75492 -4.88125,3.65067 z" />
      <path
         id="path5594"
         style="font-size:31.03430939px;line-height:0%;font-family:'Imperial BT';-inkscape-font-specification:'Imperial BT';letter-spacing:3.10343099px;fill:#000000;stroke:#000000;stroke-opacity:1"
         d="m 233.29099,641.99141 c -0.53876,0.70715 -0.74557,1.337 -0.62042,1.88955 0.12514,0.55255 0.60749,1.16133 1.44705,1.82636 l -0.68587,0.92528 -7.43721,-5.66611 0.70999,-0.90691 c 0.87208,0.63901 1.59463,0.94501 2.16766,0.91802 0.57301,-0.027 1.12584,-0.39005 1.65848,-1.08917 l 9.15576,-12.01765 c 0.53262,-0.69911 0.73388,-1.33001 0.60378,-1.89271 -0.13014,-0.56268 -0.61899,-1.17959 -1.46657,-1.85076 l 0.67038,-0.87992 7.4372,5.6661 -0.67038,0.87993 c -0.86407,-0.63287 -1.5826,-0.93582 -2.1556,-0.90883 -0.57304,0.027 -1.12587,0.39006 -1.65848,1.08917 z" />
      <path
         id="path5596"
         style="font-size:31.03430939px;line-height:0%;font-family:'Imperial BT';-inkscape-font-specification:'Imperial BT';letter-spacing:3.10343099px;fill:#000000;stroke:#000000;stroke-opacity:1"
         d="m 257.37009,655.30843 0.6004,1.3891 c -1.81721,1.01243 -3.61654,1.49796 -5.39802,1.45658 -1.7815,-0.0414 -3.55639,-0.61073 -5.32466,-1.70801 -1.2361,-0.76704 -2.26783,-1.6718 -3.09519,-2.71428 -0.82738,-1.04249 -1.43855,-2.20347 -1.83352,-3.48293 -0.50216,-1.64321 -0.65107,-3.24257 -0.44672,-4.7981 0.20435,-1.55553 0.7726,-3.08439 1.70477,-4.58658 0.7617,-1.22749 1.67415,-2.28119 2.73736,-3.16111 1.06319,-0.8799 2.25257,-1.56559 3.56814,-2.05707 1.64822,-0.60603 3.29256,-0.837 4.93305,-0.69291 1.64045,0.14412 3.16456,0.65296 4.57234,1.52651 1.0558,0.65519 2.01856,1.50823 2.88828,2.55914 0.86967,1.05093 1.33886,1.59769 1.40756,1.6403 0.23173,0.14382 0.50337,0.19944 0.81491,0.16684 0.31149,-0.0326 0.63505,-0.14687 0.9707,-0.34285 l 0.88843,0.5513 -3.43251,6.02011 -1.00432,-0.62321 c 0.48665,-1.83807 0.49024,-3.46764 0.0108,-4.88873 -0.47951,-1.42107 -1.42743,-2.57106 -2.84375,-3.44996 -2.00866,-1.24642 -4.11708,-1.46987 -6.32526,-0.67035 -2.2082,0.79954 -4.11929,2.49977 -5.73324,5.10069 -1.54473,2.48934 -2.14767,4.88837 -1.80881,7.1971 0.33885,2.30873 1.55122,4.11028 3.63712,5.40465 1.21891,0.75638 2.52339,1.14973 3.91347,1.18007 1.39004,0.0303 2.92294,-0.30844 4.5987,-1.0163 z" />
      <path
         id="path5598"
         style="font-size:31.03430939px;line-height:0%;font-family:'Imperial BT';-inkscape-font-specification:'Imperial BT';letter-spacing:3.10343099px;fill:#000000;stroke:#000000;stroke-opacity:1"
         d="m 281.71243,671.83752 c 2.07285,0.80174 4.05061,0.58915 5.93329,-0.63777 1.88265,-1.22693 3.39067,-3.30553 4.52407,-6.2358 1.13335,-2.93027 1.4165,-5.48263 0.84945,-7.65708 -0.5671,-2.17443 -1.88707,-3.66253 -3.95991,-4.46429 -2.06345,-0.79808 -4.03179,-0.58185 -5.90502,0.64871 -1.87326,1.23059 -3.37657,3.31101 -4.50993,6.24127 -1.13339,2.93027 -1.42125,5.48081 -0.86359,7.65161 0.55765,2.1708 1.86819,3.65525 3.93164,4.45335 z m -0.55758,1.44158 c -1.38505,-0.53571 -2.60013,-1.30084 -3.64522,-2.29539 -1.04511,-0.99455 -1.84819,-2.15275 -2.40926,-3.47459 -0.59938,-1.39081 -0.90157,-2.87789 -0.90656,-4.46124 -0.005,-1.58335 0.29134,-3.14763 0.88901,-4.69287 0.59766,-1.54521 1.42688,-2.89797 2.48766,-4.05828 1.06076,-1.16029 2.28549,-2.05137 3.67418,-2.67326 1.34004,-0.60816 2.72888,-0.92939 4.16652,-0.96368 1.4376,-0.0343 2.83951,0.21281 4.20573,0.74121 1.37561,0.53209 2.58361,1.29448 3.62403,2.2872 1.04036,0.99274 1.84687,2.16309 2.41952,3.51105 0.61455,1.40753 0.92852,2.89917 0.94189,4.47491 0.0133,1.57576 -0.27701,3.13153 -0.87101,4.66733 -0.59404,1.5358 -1.42797,2.88674 -2.50178,4.05282 -1.07386,1.16608 -2.31166,2.06294 -3.71338,2.69059 -1.30453,0.60026 -2.67559,0.91753 -4.11319,0.95182 -1.43763,0.0343 -2.85368,-0.21827 -4.24814,-0.75762 z" />
      <path
         id="path5600"
         style="font-size:31.03430939px;line-height:0%;font-family:'Imperial BT';-inkscape-font-specification:'Imperial BT';letter-spacing:3.10343099px;fill:#000000;stroke:#000000;stroke-opacity:1"
         d="m 304.1229,676.34923 c -0.21685,0.86215 -0.15288,1.52931 0.19193,2.00146 0.34479,0.47215 1.03644,0.83882 2.07495,1.10003 l 0.14696,0.037 -0.28092,1.11688 -9.02319,-2.26951 0.28091,-1.11688 c 0.98711,0.21703 1.72648,0.19726 2.21811,-0.0593 0.49162,-0.25656 0.84339,-0.80612 1.05532,-1.64868 l 3.68518,-14.65167 c 0.21191,-0.84254 0.15955,-1.49375 -0.15708,-1.95363 -0.31665,-0.45984 -0.95623,-0.82644 -1.91875,-1.0998 l 0.26983,-1.07279 17.60551,4.42813 -1.22346,4.8643 -1.23445,-0.31049 c 0.14885,-1.29592 10e-4,-2.24189 -0.44248,-2.83794 -0.44388,-0.59601 -1.44958,-1.09115 -3.0171,-1.48544 l -6.08405,-1.53026 -1.9775,7.86223 3.38002,0.85015 c 1.04828,0.26367 1.83788,0.24091 2.3688,-0.0683 0.53089,-0.30918 0.99069,-1.00866 1.37939,-2.09844 l 1.10218,0.27722 -1.89988,7.55362 -1.10218,-0.27722 c 0.18052,-1.17337 0.11926,-2.02735 -0.18378,-2.56192 -0.30307,-0.53457 -0.94446,-0.92506 -1.92416,-1.17149 l -3.52698,-0.8871 z" />
      <path
         id="path5602"
         style="font-size:31.03430939px;line-height:0%;font-family:'Imperial BT';-inkscape-font-specification:'Imperial BT';letter-spacing:3.10343099px;fill:#000000;stroke:#000000;stroke-opacity:1"
         d="m 352.0188,664.65823 -0.0972,5.49392 -1.14837,-0.087 c -0.17215,-1.47194 -0.58941,-2.51668 -1.25178,-3.13425 -0.66242,-0.61753 -1.77934,-0.98584 -3.35078,-1.10494 l -2.28163,-0.1729 -1.28931,17.01402 c -0.0664,0.87639 0.10553,1.51503 0.51588,1.91592 0.41032,0.40088 1.15365,0.65224 2.22999,0.75406 l -0.087,1.14838 -9.33807,-0.70764 0.087,-1.14837 c 1.06854,0.0708 1.84107,-0.0631 2.31759,-0.40186 0.4765,-0.33874 0.74796,-0.94631 0.81439,-1.8227 l 1.28931,-17.01403 -2.29674,-0.17404 c -1.57147,-0.11907 -2.72862,0.0769 -3.47147,0.58796 -0.74285,0.51108 -1.3153,1.48082 -1.71735,2.90924 l -1.13326,-0.0859 0.7167,-5.44697 z" />
      <path
         id="path5604"
         style="font-size:31.03430939px;line-height:0%;font-family:'Imperial BT';-inkscape-font-specification:'Imperial BT';letter-spacing:3.10343099px;fill:#000000;stroke:#000000;stroke-opacity:1"
         d="m 372.03634,673.58251 -0.31523,-6.11388 c -0.0453,-0.87772 -0.29683,-1.48939 -0.75466,-1.83503 -0.45787,-0.3456 -1.22203,-0.50093 -2.29248,-0.46599 l -0.057,-1.10473 9.11029,-0.46973 0.057,1.10474 c -0.99727,0.0818 -1.69574,0.31759 -2.09542,0.7074 -0.39973,0.38985 -0.57721,1.01859 -0.53245,1.88622 l 0.77793,15.08796 c 0.0447,0.86765 0.28339,1.47494 0.71605,1.82185 0.43261,0.34692 1.15415,0.5095 2.16462,0.48775 l 0.0593,1.15014 -9.11028,0.46972 -0.0442,-1.15092 c 1.06837,-0.0753 1.81011,-0.30575 2.22522,-0.69132 0.41508,-0.38557 0.59974,-1.02227 0.55398,-1.91009 l -0.36907,-7.15809 -11.19869,0.5774 0.36907,7.15809 c 0.0453,0.87774 0.30198,1.49167 0.77019,1.84181 0.46819,0.35015 1.23222,0.50295 2.29209,0.45842 l 0.0744,1.14936 -9.14055,0.47128 -0.0593,-1.15014 c 1.00733,-0.0823 1.70833,-0.31821 2.10299,-0.70778 0.39465,-0.38957 0.56962,-1.01818 0.52488,-1.88583 l -0.77793,-15.08797 c -0.0447,-0.86763 -0.28594,-1.47478 -0.72361,-1.82146 -0.43768,-0.34663 -1.1567,-0.50935 -2.15706,-0.48814 l -0.057,-1.10473 9.14055,-0.47129 0.057,1.10474 c -1.07848,0.0759 -1.83018,0.30934 -2.2551,0.70045 -0.42493,0.39116 -0.61476,1.02559 -0.5695,1.90331 l 0.31523,6.11388 z" />
      <path
         id="path5606"
         style="font-size:31.03430939px;line-height:0%;font-family:'Imperial BT';-inkscape-font-specification:'Imperial BT';letter-spacing:3.10343099px;fill:#000000;stroke:#000000;stroke-opacity:1"
         d="m 384.22486,685.08325 -0.20461,-1.13335 c 0.98877,-0.2093 1.6542,-0.53218 1.9963,-0.96864 0.34209,-0.43645 0.43596,-1.08217 0.28161,-1.93715 l -2.68415,-14.86766 c -0.15435,-0.85496 -0.47057,-1.42664 -0.94866,-1.71504 -0.47808,-0.28836 -1.21193,-0.35863 -2.20153,-0.21078 l -0.19653,-1.08861 17.86505,-3.22528 0.87497,4.84653 -1.19299,0.21537 c -0.37625,-1.17419 -0.90231,-1.94153 -1.57818,-2.30202 -0.67589,-0.36044 -1.74951,-0.40785 -3.22086,-0.14224 l -6.35268,1.14688 1.44034,7.97814 3.42985,-0.61921 c 1.06374,-0.19203 1.77371,-0.53835 2.1299,-1.03896 0.35617,-0.50058 0.48663,-1.32742 0.39139,-2.48052 l 1.11843,-0.20191 1.3838,7.66497 -1.11842,0.20192 c -0.31937,-1.14342 -0.7273,-1.89615 -1.22381,-2.25821 -0.49653,-0.36204 -1.24187,-0.45332 -2.23602,-0.27385 l -3.57897,0.64613 1.16304,6.44216 c 0.19742,1.09358 0.50266,1.77503 0.91572,2.04435 0.41305,0.26933 1.16636,0.30528 2.25994,0.10785 l 4.54829,-0.82113 c 1.23274,-0.22255 2.16221,-0.70346 2.78843,-1.44272 0.62617,-0.73924 1.03007,-1.82846 1.21169,-3.26764 l 1.16316,-0.20999 -0.002,5.62071 z" />
      <path
         id="path5608"
         style="font-size:31.03430939px;line-height:0%;font-family:'Imperial BT';-inkscape-font-specification:'Imperial BT';letter-spacing:3.10343099px;fill:#000000;stroke:#000000;stroke-opacity:1"
         d="m 418.61893,655.57397 3.28051,8.94921 c 0.54349,-0.10238 1.02936,-0.20785 1.45761,-0.31643 0.42825,-0.10855 0.80836,-0.22368 1.14034,-0.34539 1.70732,-0.62584 2.89284,-1.52308 3.55657,-2.69173 0.66371,-1.16862 0.73305,-2.46906 0.20804,-3.90133 -0.57718,-1.57451 -1.49397,-2.5565 -2.75035,-2.94598 -1.25639,-0.38943 -2.92321,-0.20343 -5.00044,0.558 z m 5.86216,15.99191 c 0.30597,0.8347 0.73432,1.35015 1.28507,1.54637 0.55072,0.19623 1.3288,0.11006 2.33423,-0.2585 l 0.14228,-0.0521 0.39637,1.0813 -8.73579,3.20229 -0.39637,-1.08131 c 0.93808,-0.37615 1.53811,-0.8086 1.80009,-1.29737 0.26198,-0.48876 0.24346,-1.141 -0.0556,-1.95672 l -5.1998,-14.18499 c -0.29902,-0.81571 -0.7088,-1.32452 -1.22935,-1.52645 -0.52053,-0.2019 -1.25553,-0.14497 -2.20499,0.17077 l -0.38073,-1.03862 8.87807,-3.25444 c 2.75068,-1.00829 5.02863,-1.25154 6.83387,-0.72975 1.80523,0.52184 3.07988,1.79765 3.82396,3.82745 0.6919,1.88755 0.44128,3.67676 -0.75189,5.36763 -1.19318,1.6909 -3.18408,3.04746 -5.9727,4.06967 -0.35095,0.12866 -0.72759,0.25328 -1.12991,0.37385 -0.40233,0.12059 -0.86354,0.24931 -1.38363,0.38615 z" />
      <path
         id="path5610"
         style="font-size:31.03430939px;line-height:0%;font-family:'Imperial BT';-inkscape-font-specification:'Imperial BT';letter-spacing:3.10343099px;fill:#000000;stroke:#000000;stroke-opacity:1"
         d="m 451.75183,649.59048 -2.8129,-5.43751 c -0.40383,-0.78061 -0.88562,-1.23372 -1.44535,-1.35933 -0.55975,-0.12557 -1.31982,0.0487 -2.28021,0.52273 l -0.50827,-0.98252 8.10243,-4.1915 0.50827,0.98252 c -0.87439,0.48648 -1.41306,0.98978 -1.61599,1.50989 -0.20296,0.52017 -0.10484,1.16607 0.29436,1.9377 l 6.94173,13.41881 c 0.39917,0.77167 0.86742,1.2261 1.40474,1.36328 0.53729,0.13721 1.26155,-0.0128 2.17277,-0.45009 l 0.52916,1.0229 -8.10243,4.19149 -0.5157,-1.02986 c 0.94182,-0.50996 1.5221,-1.02625 1.74084,-1.54888 0.21871,-0.5226 0.12384,-1.17871 -0.28462,-1.96833 l -3.29332,-6.36619 -9.95979,5.15233 3.29331,6.3662 c 0.40383,0.78063 0.89126,1.23367 1.4623,1.3591 0.57103,0.12544 1.32994,-0.0511 2.27673,-0.52946 l 0.54262,1.01593 -8.12935,4.20542 -0.52916,-1.0229 c 0.88335,-0.49109 1.42426,-0.99554 1.62272,-1.51336 0.19846,-0.51782 0.0981,-1.16256 -0.30109,-1.93422 l -6.94173,-13.41881 c -0.39918,-0.77164 -0.86967,-1.22491 -1.41147,-1.3598 -0.54179,-0.13486 -1.2638,0.014 -2.16604,0.44661 l -0.50827,-0.98252 8.12934,-4.20542 0.50827,0.98252 c -0.9508,0.51463 -1.53889,1.03781 -1.76427,1.56953 -0.22538,0.53177 -0.13615,1.18795 0.26768,1.96857 l 2.81289,5.43751 z" />
      <path
         id="path5612"
         style="font-size:31.03430939px;line-height:0%;font-family:'Imperial BT';-inkscape-font-specification:'Imperial BT';letter-spacing:3.10343099px;fill:#000000;stroke:#000000;stroke-opacity:1"
         d="m 470.75739,648.43287 c 0.48777,0.74325 1.01301,1.14772 1.57574,1.21342 0.56271,0.0657 1.29724,-0.18675 2.2036,-0.75741 l 0.64456,0.95451 -7.81669,5.12994 -0.61921,-0.97115 c 0.89262,-0.60998 1.42147,-1.18966 1.58656,-1.73905 0.16508,-0.54939 0.007,-1.19148 -0.47573,-1.92628 l -8.28937,-12.63084 c -0.48223,-0.73478 -1.01031,-1.13437 -1.58425,-1.19878 -0.57393,-0.0644 -1.31829,0.19154 -2.2331,0.76771 l -0.60694,-0.92482 7.81668,-5.12994 0.60694,0.92483 c -0.88417,0.60446 -1.4088,1.18137 -1.57389,1.73074 -0.16508,0.54941 -0.007,1.1915 0.47572,1.92628 z" />
      <path
         id="path5614"
         style="font-size:31.03430939px;line-height:0%;font-family:'Imperial BT';-inkscape-font-specification:'Imperial BT';letter-spacing:3.10343099px;fill:#000000;stroke:#000000;stroke-opacity:1"
         d="m 479.50423,646.94498 -0.7142,-0.90347 c 0.77372,-0.65026 1.20871,-1.24846 1.30498,-1.79459 0.0963,-0.54612 -0.125,-1.15997 -0.66378,-1.84153 l -9.36916,-11.85205 c -0.53877,-0.68154 -1.08694,-1.03696 -1.64452,-1.06625 -0.55755,-0.0293 -1.23802,0.25433 -2.04141,0.85076 l -0.68601,-0.8678 7.3466,-5.80756 0.68601,0.8678 -0.11888,0.094 c -0.86383,0.6829 -1.35817,1.31191 -1.483,1.88704 -0.12483,0.57517 0.0884,1.21145 0.63972,1.90885 l 8.90868,11.26954 c 0.68914,0.87177 1.27462,1.32325 1.75644,1.35445 0.48182,0.0312 1.24578,-0.36668 2.29191,-1.19365 l 2.43698,-1.92646 c 1.11743,-0.88334 1.793,-1.81659 2.02671,-2.79975 0.23369,-0.98314 0.0775,-2.27622 -0.46852,-3.87924 l 0.87969,-0.69541 2.80849,5.40985 z" />
      <path
         id="path5616"
         style="font-size:31.03430939px;line-height:0%;font-family:'Imperial BT';-inkscape-font-specification:'Imperial BT';letter-spacing:3.10343099px;fill:#000000;stroke:#000000;stroke-opacity:1"
         d="m 499.20151,625.55923 c 0.61033,0.64639 1.19826,0.95269 1.7638,0.91888 0.56553,-0.0338 1.24453,-0.41094 2.03701,-1.13143 l 0.80168,0.82697 -6.7981,6.41892 -0.77964,-0.84777 c 0.77208,-0.7568 1.1913,-1.42011 1.25767,-1.98991 0.0664,-0.5698 -0.20214,-1.17423 -0.80554,-1.81327 l -10.37223,-10.98494 c -0.60339,-0.63903 -1.19326,-0.94001 -1.76962,-0.90297 -0.57633,0.0371 -1.26441,0.41932 -2.06425,1.14673 l -0.75945,-0.80431 6.7981,-6.41893 0.75945,0.80431 c -0.76472,0.74989 -1.18028,1.40973 -1.24666,1.97951 -0.0664,0.56983 0.20216,1.17425 0.80555,1.81327 z" />
      <path
         id="path5618"
         style="font-size:31.03430939px;line-height:0%;font-family:'Imperial BT';-inkscape-font-specification:'Imperial BT';letter-spacing:3.10343099px;fill:#000000;stroke:#000000;stroke-opacity:1"
         d="m 496.22098,604.25485 7.13686,6.31786 c 0.42968,-0.34819 0.80717,-0.67175 1.13249,-0.97067 0.32533,-0.2989 0.60517,-0.58073 0.83954,-0.84549 1.20531,-1.36155 1.82254,-2.71415 1.85168,-4.05781 0.0291,-1.34363 -0.52739,-2.52101 -1.66959,-3.53216 -1.25567,-1.11154 -2.52881,-1.54037 -3.81945,-1.2865 -1.29062,0.25393 -2.66917,1.20916 -4.13564,2.86571 z m 12.75331,11.28978 c 0.66565,0.58927 1.28741,0.83948 1.86527,0.75062 0.57785,-0.0888 1.22168,-0.53417 1.93148,-1.33598 l 0.10044,-0.11347 0.86232,0.76337 -6.16719,6.96667 -0.86232,-0.76337 c 0.64692,-0.77651 0.96961,-1.44204 0.96806,-1.99659 -0.002,-0.55454 -0.32759,-1.11975 -0.97811,-1.69562 L 495.38191,608.1061 c -0.65051,-0.57585 -1.25277,-0.82904 -1.80677,-0.75955 -0.55397,0.0695 -1.17377,0.46866 -1.8594,1.19742 l -0.82828,-0.73324 6.26763,-7.08013 c 1.9419,-2.1936 3.8311,-3.48945 5.66759,-3.88753 1.8365,-0.39803 3.56412,0.11944 5.18286,1.5524 1.50528,1.33256 2.13439,3.02617 1.88732,5.08083 -0.24708,2.0547 -1.35495,4.19398 -3.32363,6.41786 -0.24776,0.27989 -0.52004,0.56841 -0.81685,0.86557 -0.2968,0.29719 -0.64156,0.62949 -1.03428,0.9969 z" />
      <path
         id="path5620"
         style="font-size:31.03430939px;line-height:0%;font-family:'Imperial BT';-inkscape-font-specification:'Imperial BT';letter-spacing:3.10343099px;fill:#000000;stroke:#000000;stroke-opacity:1"
         d="m 509.71919,587.71255 7.79321,5.48782 c 0.38843,-0.39368 0.72773,-0.75709 1.01791,-1.09023 0.29019,-0.33312 0.53707,-0.64423 0.74064,-0.93334 1.04697,-1.48676 1.51045,-2.89945 1.39047,-4.23806 -0.11998,-1.33857 -0.80359,-2.44701 -2.05083,-3.32531 -1.37114,-0.96551 -2.68398,-1.25057 -3.93852,-0.8552 -1.25452,0.39542 -2.51869,1.49758 -3.7925,3.30647 z m 13.92617,9.80653 c 0.72687,0.51185 1.37253,0.6916 1.93698,0.53923 0.56444,-0.15235 1.15494,-0.6663 1.77148,-1.54186 l 0.0872,-0.12389 0.94163,0.66307 -5.35695,7.60736 -0.94162,-0.66308 c 0.55686,-0.84343 0.80379,-1.54063 0.74077,-2.09159 -0.063,-0.55095 -0.44969,-1.07653 -1.16004,-1.57675 l -12.35266,-8.6985 c -0.71034,-0.5002 -1.33694,-0.68506 -1.87983,-0.55459 -0.54285,0.1305 -1.11459,0.59588 -1.71521,1.39615 l -0.90446,-0.6369 5.44419,-7.73126 c 1.68678,-2.39534 3.42069,-3.89261 5.20174,-4.49181 1.78106,-0.59915 3.55539,-0.27637 5.323,0.96832 1.64372,1.15749 2.45668,2.77093 2.43889,4.84032 -0.0178,2.06942 -0.88171,4.31833 -2.59174,6.74672 -0.21521,0.30563 -0.45383,0.62256 -0.71587,0.95079 -0.26203,0.32825 -0.56783,0.69672 -0.9174,1.1054 z" />
      <path
         id="path5622"
         style="font-size:31.03430939px;line-height:0%;font-family:'Imperial BT';-inkscape-font-specification:'Imperial BT';letter-spacing:3.10343099px;fill:#000000;stroke:#000000;stroke-opacity:1"
         d="m 536.28566,577.85119 c 0.76959,0.44504 1.42053,0.57056 1.95283,0.37656 0.53229,-0.19399 1.07521,-0.74943 1.62876,-1.66634 l 1.00456,0.5634 -4.68041,8.09386 -0.98939,-0.58964 c 0.52363,-0.94587 0.73583,-1.70131 0.63661,-2.26632 -0.0992,-0.56501 -0.52925,-1.0675 -1.2901,-1.50748 l -13.07873,-7.56299 c -0.76083,-0.43996 -1.41212,-0.55984 -1.95385,-0.35965 -0.54171,0.20023 -1.09187,0.76315 -1.6505,1.68878 l -0.95762,-0.55376 4.68041,-8.09385 0.95762,0.55376 c -0.51855,0.93714 -0.72823,1.68821 -0.62902,2.2532 0.0992,0.56503 0.52926,1.06752 1.2901,1.50748 z" />
      <path
         id="path5624"
         style="font-size:31.03430939px;line-height:0%;font-family:'Imperial BT';-inkscape-font-specification:'Imperial BT';letter-spacing:3.10343099px;fill:#000000;stroke:#000000;stroke-opacity:1"
         d="m 542.08671,566.78967 c 0.82924,0.37285 1.52078,0.4484 2.07461,0.22665 0.55383,-0.22173 1.02338,-0.76104 1.40865,-1.61794 l 0.0932,-0.20731 1.05038,0.47226 -3.14429,6.99332 -1.05038,-0.47227 0.0373,-0.0829 c 0.37698,-0.83846 0.46462,-1.53841 0.26292,-2.09985 -0.20171,-0.56144 -0.71718,-1.02857 -1.54643,-1.40142 l -14.71912,-6.61792 c -0.47439,0.119 -0.89925,0.34335 -1.27457,0.67303 -0.37528,0.32971 -0.71439,0.76983 -1.01733,1.32037 l -1.00891,-0.45362 2.42968,-5.40393 20.34366,-5.37443 -11.47124,-5.15763 c -0.84767,-0.3811 -1.56131,-0.44444 -2.14094,-0.19001 -0.5796,0.25447 -1.07862,0.847 -1.49704,1.77757 l -1.00891,-0.45362 3.15671,-7.02095 1.00892,0.45362 c -0.37512,0.88363 -0.45802,1.61617 -0.24872,2.19761 0.20932,0.5815 0.72399,1.05659 1.54401,1.42526 l 17.19304,7.73023 -0.50333,1.11948 -23.32274,6.16168 z" />
      <path
         id="path5626"
         style="font-size:31.03430939px;line-height:0%;font-family:'Imperial BT';-inkscape-font-specification:'Imperial BT';letter-spacing:3.10343099px;fill:#000000;stroke:#000000;stroke-opacity:1"
         d="m 555.02451,546.02059 -1.10128,-0.3369 c 0.26655,-0.9749 0.28411,-1.71433 0.0527,-2.21828 -0.23144,-0.50394 -0.76255,-0.88299 -1.59334,-1.13715 l -14.44709,-4.41969 c -0.83078,-0.25415 -1.4838,-0.23471 -1.95906,0.0583 -0.47523,0.29305 -0.87364,0.91332 -1.19522,1.86082 l -1.05781,-0.3236 5.31073,-17.35969 4.70943,1.44072 -0.35464,1.15924 c -1.21618,-0.203 -2.13921,-0.0866 -2.76911,0.3493 -0.62986,0.43591 -1.16349,1.36872 -1.6009,2.79844 l -1.88845,6.17298 7.75245,2.37165 1.01958,-3.33283 c 0.31623,-1.03365 0.33334,-1.82339 0.0513,-2.36923 -0.282,-0.54581 -0.95739,-1.04031 -2.02617,-1.4835 l 0.33247,-1.08679 7.44815,2.27856 -0.33248,1.08679 c -1.16276,-0.2395 -2.01874,-0.2214 -2.56792,0.0543 -0.54918,0.27571 -0.97153,0.89658 -1.26707,1.8626 l -1.06392,3.47774 6.25992,1.91505 c 1.06264,0.32509 1.80823,0.36567 2.23677,0.12172 0.42853,-0.24393 0.80534,-0.89722 1.13043,-1.95987 l 1.35206,-4.41962 c 0.36646,-1.19787 0.3644,-2.24439 -0.006,-3.13955 -0.37059,-0.89512 -1.15408,-1.75283 -2.35047,-2.57312 l 0.34577,-1.13027 4.99648,2.57442 z" />
      <path
         id="path5628"
         style="font-size:31.03430939px;line-height:0%;font-family:'Imperial BT';-inkscape-font-specification:'Imperial BT';letter-spacing:3.10343099px;fill:#000000;stroke:#000000;stroke-opacity:1"
         d="m 562.68193,520.31203 -0.2166,1.16195 -7.15755,-0.9643 0.19716,-1.05768 c 2.0475,-0.39932 3.65065,-1.10241 4.80945,-2.10929 1.15881,-1.00686 1.89187,-2.33459 2.19919,-3.98318 0.27214,-1.45988 0.1135,-2.71748 -0.47592,-3.77279 -0.58942,-1.05528 -1.48497,-1.69493 -2.68665,-1.91895 -0.96333,-0.17956 -1.82203,-0.0108 -2.57612,0.50631 -0.75408,0.51713 -1.56723,1.5165 -2.43945,2.9981 l -1.33434,2.27925 c -1.15094,1.98459 -2.28082,3.34625 -3.38966,4.08497 -1.1088,0.73873 -2.36337,0.97757 -3.76368,0.71654 -1.79754,-0.33508 -3.14644,-1.28532 -4.04671,-2.85073 -0.90022,-1.56539 -1.1504,-3.42066 -0.75055,-5.56582 0.18145,-0.97324 0.57804,-1.97062 1.18977,-2.99214 0.61177,-1.02148 0.93153,-1.60671 0.95928,-1.7557 0.0463,-0.24826 -0.007,-0.48682 -0.15947,-0.71567 -0.15257,-0.22881 -0.39467,-0.44607 -0.7263,-0.65178 l 0.19161,-1.02788 6.40362,1.03957 -0.18605,0.99809 c -1.68155,0.20037 -3.03895,0.75659 -4.0722,1.66867 -1.03322,0.91212 -1.69332,2.13784 -1.98029,3.67717 -0.2462,1.32086 -0.12152,2.44367 0.37403,3.36842 0.4956,0.92478 1.25981,1.48343 2.29264,1.67595 0.80444,0.14997 1.54027,-0.0212 2.20748,-0.51337 0.66724,-0.49219 1.39606,-1.42507 2.18647,-2.79863 l 1.49693,-2.57264 c 1.23209,-2.14415 2.43153,-3.6033 3.59833,-4.37748 1.16681,-0.77414 2.49506,-1.02238 3.98474,-0.7447 1.96638,0.36658 3.45967,1.41053 4.47985,3.13186 1.02018,1.72136 1.31645,3.72909 0.8888,6.02319 -0.24067,1.29107 -0.72743,2.55167 -1.46028,3.78181 -0.73286,1.23014 -1.10576,1.87997 -1.11872,1.94949 -0.0463,0.24828 0.0101,0.46946 0.16918,0.66353 0.15908,0.19408 0.46308,0.41003 0.91201,0.64786 z" />
    </g>
    <path
       id="path3809"
       d="m 231.18855,271.32121 c -1.62589,0 -2.96328,0.6794 -3.81189,1.57454 -0.84862,0.89515 -1.32358,2.06099 -1.32358,3.33369 0,1.2727 0.47496,2.43854 1.32358,3.33369 0.84861,0.89515 2.186,1.57454 3.81189,1.57454 1.62589,0 2.94563,-0.67939 3.79425,-1.57454 0.84861,-0.89515 1.32357,-2.06099 1.32357,-3.33369 0,-1.2727 -0.47496,-2.43854 -1.32357,-3.33369 -0.84862,-0.89514 -2.16836,-1.57454 -3.79425,-1.57454 z m 0,1.38994 c 0.57949,0 1.23871,0.26108 1.83536,0.89043 0.59664,0.62936 1.02356,1.57425 1.02356,2.62786 0,1.05361 -0.42692,1.9985 -1.02356,2.62786 -0.59665,0.62935 -1.25587,0.89043 -1.83536,0.89043 -0.57949,0 -1.25636,-0.26108 -1.853,-0.89043 -0.59665,-0.62936 -1.02357,-1.57425 -1.02357,-2.62786 0,-1.05361 0.42692,-1.9985 1.02357,-2.62786 0.59664,-0.62935 1.27351,-0.89043 1.853,-0.89043 z"
       style="color:#000000;font-style:normal;font-variant:normal;font-weight:normal;font-stretch:normal;font-size:medium;line-height:normal;font-family:Sans;-inkscape-font-specification:Sans;text-indent:0;text-align:start;text-decoration:none;text-decoration-line:none;letter-spacing:normal;word-spacing:normal;text-transform:none;writing-mode:lr-tb;direction:ltr;baseline-shift:baseline;text-anchor:start;display:inline;overflow:visible;visibility:visible;fill:#000000;fill-opacity:0;fill-rule:nonzero;stroke:none;stroke-width:4;marker:none;enable-background:accumulate" />
    <path
       id="path3809-6"
       d="m 469.00756,267.05901 c -1.62589,0 -2.96328,0.6794 -3.81189,1.57454 -0.84862,0.89515 -1.32358,2.06099 -1.32358,3.33369 0,1.2727 0.47496,2.43854 1.32358,3.33369 0.84861,0.89515 2.186,1.57454 3.81189,1.57454 1.62589,0 2.94563,-0.67939 3.79425,-1.57454 0.84861,-0.89515 1.32357,-2.06099 1.32357,-3.33369 0,-1.2727 -0.47496,-2.43854 -1.32357,-3.33369 -0.84862,-0.89514 -2.16836,-1.57454 -3.79425,-1.57454 z m 0,1.38994 c 0.57949,0 1.23871,0.26108 1.83536,0.89043 0.59664,0.62936 1.02356,1.57425 1.02356,2.62786 0,1.05361 -0.42692,1.9985 -1.02356,2.62786 -0.59665,0.62935 -1.25587,0.89043 -1.83536,0.89043 -0.57949,0 -1.25636,-0.26108 -1.853,-0.89043 -0.59665,-0.62936 -1.02357,-1.57425 -1.02357,-2.62786 0,-1.05361 0.42692,-1.9985 1.02357,-2.62786 0.59664,-0.62935 1.27351,-0.89043 1.853,-0.89043 z"
       style="color:#000000;font-style:normal;font-variant:normal;font-weight:normal;font-stretch:normal;font-size:medium;line-height:normal;font-family:Sans;-inkscape-font-specification:Sans;text-indent:0;text-align:start;text-decoration:none;text-decoration-line:none;letter-spacing:normal;word-spacing:normal;text-transform:none;writing-mode:lr-tb;direction:ltr;baseline-shift:baseline;text-anchor:start;display:inline;overflow:visible;visibility:visible;fill:#000000;fill-opacity:0;fill-rule:nonzero;stroke:none;stroke-width:4;marker:none;enable-background:accumulate" />
    <path
       transform="translate(210,130)"
       id="path3927"
       d="m 83.085047,113.09334 9.42809,-53.916896 18.414243,-0.147314 c -0.2286,2.93517 0.93105,5.948708 3.0683,7.973468 2.13725,2.024761 5.20902,3.019943 8.12756,2.633135 2.5599,-0.339276 4.96563,-1.723575 6.54534,-3.766301 1.57971,-2.042727 2.31439,-4.719305 1.99886,-7.282243 l 0.0684,-9.133463 20.4082,-0.147314 v 9.575405 c -0.56345,3.010619 0.40957,6.268185 2.53192,8.476569 2.12234,2.208383 5.33869,3.310026 8.36931,2.866602 2.56742,-0.37565 4.95849,-1.834777 6.46666,-3.946213 1.50816,-2.111436 2.11294,-4.846489 1.63561,-7.396958 l 20.62395,0.147313 6.3345,54.65346 z"
       style="fill:#0038a8;fill-opacity:1;stroke:none" />
    <path
       transform="rotate(1.9572676,-3627.2425,6775.2636)"
       d="m 97.916669,94.84375 -5.603914,-3.769668 -5.451778,3.986523 1.853463,-6.494531 -5.476101,-3.953046 6.749417,-0.244172 2.067362,-6.42964 2.317907,6.343624 6.753805,-0.02069 -5.316877,4.164748 z"
       id="path3041"
       style="fill:#ffffff;fill-opacity:1;stroke:none" />
    <path
       transform="rotate(0.97181396,-6865.6177,15342.367)"
       d="m 97.916669,94.84375 -5.603914,-3.769668 -5.451778,3.986523 1.853463,-6.494531 -5.476101,-3.953046 6.749417,-0.244172 2.067362,-6.42964 2.317907,6.343624 6.753805,-0.02069 -5.316877,4.164748 z"
       id="path3041-1"
       style="fill:#ffffff;fill-opacity:1;stroke:none" />
    <path
       transform="rotate(1.756291,-4051.2291,9540.301)"
       d="m 97.916669,94.84375 -5.603914,-3.769668 -5.451778,3.986523 1.853463,-6.494531 -5.476101,-3.953046 6.749417,-0.244172 2.067362,-6.42964 2.317907,6.343624 6.753805,-0.02069 -5.316877,4.164748 z"
       id="path3041-7"
       style="fill:#ffffff;fill-opacity:1;stroke:none" />
    <path
       transform="translate(210,130)"
       id="path3931"
       d="m 82.643105,113.82991 114.168285,0.44194 3.68285,27.10576 -13.99483,77.92906 -19.88737,0.44194 c -7.67057,-6.92467 -17.95042,-10.8867 -28.28427,-10.90123 -10.51923,-0.0148 -20.99132,4.06664 -28.72622,11.19586 L 92.260387,220.25157 77.19249,141.67224 Z"
       style="fill:#ce1126;fill-opacity:1;stroke:none" />
    <ellipse
       ry="11.343171"
       rx="10.974887"
       cy="145.35509"
       cx="97.00621"
       transform="matrix(1.0478468,0,0,1.0138259,220.35235,127.23525)"
       id="path3070"
       style="fill:#ffff00;fill-opacity:1;stroke:none" />
    <ellipse
       ry="11.343171"
       rx="10.974887"
       cy="145.35509"
       cx="97.00621"
       transform="matrix(1.0478468,0,0,1.0138259,246.85235,113.25894)"
       id="path3070-4"
       style="fill:#ffff00;fill-opacity:1;stroke:none" />
    <ellipse
       ry="11.343171"
       rx="10.974887"
       cy="145.35509"
       cx="97.00621"
       transform="matrix(1.0478468,0,0,1.0138259,274.25235,127.23525)"
       id="path3070-0"
       style="fill:#ffff00;fill-opacity:1;stroke:none" />
    <ellipse
       ry="11.343171"
       rx="10.974887"
       cy="145.35509"
       cx="97.00621"
       transform="matrix(1.0478468,0,0,1.0138259,246.85235,142.88026)"
       id="path3070-9"
       style="fill:#ffff00;fill-opacity:1;stroke:none" />
    <ellipse
       ry="11.343171"
       rx="10.974887"
       cy="145.35509"
       cx="97.00621"
       transform="matrix(1.0478468,0,0,1.0138259,274.25235,156.53525)"
       id="path3070-48"
       style="fill:#ffff00;fill-opacity:1;stroke:none" />
    <ellipse
       ry="11.343171"
       rx="10.974887"
       cy="145.35509"
       cx="97.00621"
       transform="matrix(1.0478468,0,0,1.0138259,246.85235,171.63525)"
       id="path3070-8"
       style="fill:#ffff00;fill-opacity:1;stroke:none" />
    <ellipse
       ry="11.343171"
       rx="10.974887"
       cy="145.35509"
       cx="97.00621"
       transform="matrix(1.0478468,0,0,1.0138259,220.35235,156.53525)"
       id="path3070-2"
       style="fill:#ffff00;fill-opacity:1;stroke:none" />
    <g
       style="fill:none"
       id="g3922">
      <path
         style="fill:none;stroke:#000000;stroke-width:2;stroke-linecap:butt;stroke-linejoin:miter;stroke-miterlimit:4;stroke-dasharray:none;stroke-opacity:1"
         d="m 170.3125,58.854166 20,0.104167 9.89583,83.901647 -13.85416,77.03585 -18.34687,0.23667 c -7.4882,-7.54307 -18.00718,-11.98835 -28.63536,-12.1012 -10.95368,-0.11631 -21.88302,4.38287 -29.58027,12.17703 L 92.395833,220.41667 77.916667,139.27083 92.083334,59.166666 111.66667,59.0625 c -0.28165,2.643567 0.63302,5.391607 2.44277,7.339059 1.80975,1.947452 4.48347,3.060828 7.14056,2.973441 2.57237,-0.0846 5.0884,-1.289759 6.76659,-3.241148 1.67819,-1.951388 2.49315,-4.619467 2.19174,-7.175519 l 0.20834,-9.6875 h 20.41667 L 150.9375,58.75 c -0.30801,2.733931 0.60891,5.582903 2.45372,7.623966 1.84481,2.041062 4.5869,3.240359 7.33795,3.209367 2.69701,-0.03038 5.36004,-1.240463 7.15679,-3.252045 1.79675,-2.011583 2.69966,-4.793805 2.42654,-7.477122 z"
         id="path3918"
         transform="translate(210,130)" />
    </g>
    <path
       id="path3935"
       d="m 292.78125,242.375 v 2 l 114.625,0.59375 v -2 z"
       style="color:#000000;font-style:normal;font-variant:normal;font-weight:normal;font-stretch:normal;font-size:medium;line-height:normal;font-family:Sans;-inkscape-font-specification:Sans;text-indent:0;text-align:start;text-decoration:none;text-decoration-line:none;letter-spacing:normal;word-spacing:normal;text-transform:none;writing-mode:lr-tb;direction:ltr;baseline-shift:baseline;text-anchor:start;display:inline;overflow:visible;visibility:visible;fill:#000000;fill-opacity:1;stroke:none;stroke-width:2;marker:none;enable-background:accumulate" />
    <ellipse
       ry="2.9462783"
       rx="2.8726213"
       cy="147.68091"
       cx="19.519093"
       transform="translate(211.07582,128.28296)"
       id="path3959"
       style="fill:#000000;fill-opacity:1;stroke:#000000;stroke-width:5;stroke-linecap:square;stroke-linejoin:miter;stroke-miterlimit:4;stroke-dasharray:none;stroke-dashoffset:0;stroke-opacity:1" />
    <ellipse
       ry="2.9462783"
       rx="2.8726213"
       cy="147.68091"
       cx="19.519093"
       id="path3959-5"
       style="fill:#000000;fill-opacity:1;stroke:#000000;stroke-width:5;stroke-linecap:square;stroke-linejoin:miter;stroke-miterlimit:4;stroke-dasharray:none;stroke-dashoffset:0;stroke-opacity:1"
       transform="translate(449.4967,122.82857)" />
  </g>
</svg>
