<svg xmlns="http://www.w3.org/2000/svg" viewBox="0 0 530 505">
  <defs>
    <style>
      .cls-1 {
        fill: #1362c9;
      }

      .cls-2 {
        fill: #adb3ba;
      }

      .cls-3 {
        fill: #e8eae9;
      }

      .cls-4 {
        fill: #f1b744;
      }

      .cls-5 {
        fill: #344a5e;
      }

      .cls-6 {
        fill: #415a6b;
      }

      .cls-7 {
        fill: #ced6e0;
      }

      .cls-8 {
        fill: #2a3f4f;
      }

      .cls-9 {
        fill: #ffcba4;
      }

      .cls-10 {
        fill: #828282;
      }

      .cls-11 {
        fill: #f9d7b0;
      }

      .cls-12 {
        fill: #f3f3f3;
      }

      .cls-13 {
        fill: #fff;
      }

      .cls-14 {
        fill: #6e6e6e;
      }

      .cls-15 {
        fill: #bebebe;
      }

      .cls-16 {
        fill: #858585;
      }
    </style>
  </defs>
  <g id="_609116" data-name="609116" transform="translate(0 -14.673)">
    <ellipse id="Ellipse_3" data-name="Ellipse 3" class="cls-1" cx="265" cy="36" rx="265" ry="36" transform="translate(0 447.673)"/>
    <g id="Group_1" data-name="Group 1">
      <path id="Path_1" data-name="Path 1" class="cls-2" d="M238.933,465.6l-35.2-137.6,5.334-2.133,35.2,138.666Z"/>
      <path id="Path_2" data-name="Path 2" class="cls-2" d="M106.667,465.6l-5.334-1.067,21.334-148.266L128,317.328Z"/>
      <path id="Path_3" data-name="Path 3" class="cls-2" d="M267.733,465.6l-36.266-137.6,5.333-2.133,36.267,138.666Z"/>
      <path id="Path_4" data-name="Path 4" class="cls-2" d="M135.467,465.6l-5.334-1.067L150.4,316.262l5.333,1.066Z"/>
    </g>
    <path id="Path_60" data-name="Path 60" class="cls-3" d="M232.944,468.756l-16.347,6.7-16.987-1.164,1.31-4.076s2.183-2.475,4.658-10.772c2.139-4.329,7.809-35.383,9.949-39.712h1.07c9.628,2.164,21.143,5.461,24.353,8.708C237.739,433.846,231.874,457.934,232.944,468.756Z" transform="translate(52 -26.73)"/>
    <path id="Path_5" data-name="Path 5" class="cls-4" d="M100.267,311.995c0,1.067,19.2,16,52.267,22.4s115.2-6.4,130.133-17.067,0-66.133-11.733-75.733-21.333-5.333-34.133-25.6c-11.733-20.267-88.533-35.2-112-22.4S69.333,253.328,100.267,311.995Z"/>
    <path id="Path_6" data-name="Path 6" class="cls-3" d="M144,431.462s1.067-12.8,1.067-22.4,25.6-18.133,25.6-18.133,2.133,38.4,4.267,45.867,2.133,7.467,2.133,7.467S150.4,455.995,144,431.462Z"/>
    <path id="Path_7" data-name="Path 7" class="cls-5" d="M144,427.2s2.133,8.533,10.667,11.733c8.533,2.133,18.133-7.467,19.2-9.6,0,0,2.133,14.933,9.6,20.267S201.6,467.728,201.6,467.728a25.373,25.373,0,0,1-20.267,7.467c-12.8-1.067-30.933-12.8-34.133-18.133s-8.533-10.667-3.2-29.867"/>
    <path id="Path_8" data-name="Path 8" class="cls-6" d="M250.667,463.462l-2.133,3.2v4.267l12.8,3.2V472a16.136,16.136,0,0,1,11.733,3.2c5.333,4.267,10.667,8.533,18.133,8.533,6.4,0,14.933-1.067,16-5.333C309.333,475.2,268.8,463.462,250.667,463.462Z"/>
    <path id="Path_9" data-name="Path 9" class="cls-5" d="M249.6,466.662s-3.2-16,3.2-23.467a3.3,3.3,0,0,0,2.133,4.267c2.133,1.067,7.467-2.133,16-6.4a17.888,17.888,0,0,1,16,0s8.533,14.933,11.733,18.133c4.267,3.2,23.467,11.733,28.8,11.733s1.067,14.933-11.733,13.867-30.933-4.267-38.4-10.667C268.8,467.728,249.6,466.662,249.6,466.662Z"/>
    <path id="Path_10" data-name="Path 10" class="cls-7" d="M494.933,496.528h-176a15.2,15.2,0,0,1-12.8-6.4c-3.2-3.2-4.267-8.533-4.267-13.867l22.4-147.2,103.467,2.133L508.8,469.862a16.371,16.371,0,0,1,0,17.067C506.667,493.328,501.333,496.528,494.933,496.528Zm-166.4-162.133L307.2,477.328c0,3.2,0,7.467,3.2,9.6,2.133,3.2,5.333,4.267,9.6,4.267H496a11.732,11.732,0,0,0,10.667-6.4c2.133-4.267,2.133-8.533,0-11.733l-80-136.533Z"/>
    <ellipse id="Ellipse_1" data-name="Ellipse 1" class="cls-5" cx="12.8" cy="19.2" rx="12.8" ry="19.2" transform="translate(96 172.262)"/>
    <path id="Path_11" data-name="Path 11" class="cls-8" d="M104.533,302.395s17.067,23.467,27.733,25.6c0,0-6.4,17.067,0,40.533l12.8,46.933s8.533-1.067,14.933-2.133,17.067-6.4,17.067-13.867V359.994c0-12.8-1.067-20.267,1.067-25.6,2.133-4.267-1.067-8.533,8.533-10.667s42.667-2.133,42.667-2.133l46.933,6.4s-9.6,60.8-10.667,67.2c0,0,4.267-1.067,11.733,3.2s19.2,7.467,19.2,7.467,17.067-35.2,20.267-45.867,16-43.733,18.133-54.4c3.2-10.667,3.2-28.8-16-36.267A115.071,115.071,0,0,0,281.6,261.86L128,253.328Z"/>
    <g id="Group_2" data-name="Group 2">
      <path id="Path_12" data-name="Path 12" class="cls-9" d="M153.6,108.262l4.267,12.8c1.067,3.2,5.333,25.6,5.333,25.6l25.6,5.333,7.467-17.067s4.267-2.133,5.333-11.733a223.2,223.2,0,0,0,1.067-25.6c0-7.467-2.133-19.2-2.133-19.2S198.4,67.728,195.2,63.462s-44.8,5.333-46.933,13.867,4.266,27.733,5.333,30.933Z"/>
      <path id="Path_13" data-name="Path 13" class="cls-9" d="M161.067,137.062c-1.067-6.4-2.133-12.8-3.2-14.933s-2.133-7.467-3.2-10.667c1.067,2.133,1.067,4.267,2.133,7.467C157.867,124.262,160,130.661,161.067,137.062Z"/>
    </g>
    <path id="Path_14" data-name="Path 14" class="cls-9" d="M188.8,151.995l6.4-14.933a20.12,20.12,0,0,1-17.067,2.133c-9.6-3.2-20.267-16-20.267-16S169.6,144.528,188.8,151.995Z"/>
    <path id="Path_15" data-name="Path 15" class="cls-10" d="M178.133,143.462h3.2l21.333-2.133,33.067,115.2s-23.467,23.467-44.8,24.533S134.4,269.328,128,266.128c-5.333-3.2,25.6-125.867,25.6-125.867Z"/>
    <g id="Group_3" data-name="Group 3">
      <path id="Path_16" data-name="Path 16" class="cls-3" d="M181.333,156.262l3.2,3.2a98.04,98.04,0,0,0,3.2,9.6c0,2.133,18.133,125.867,18.133,125.867L195.2,309.862l-13.867-11.733s-10.667-108.8-8.533-118.4a107.506,107.506,0,0,1,4.267-19.2Z"/>
      <path id="Path_17" data-name="Path 17" class="cls-3" d="M173.867,145.6l4.267-1.067h3.2l7.467,3.2s-4.267,8.533-3.2,12.8c-3.2-1.067-5.333-1.067-8.533,1.067,0,0-2.133-9.6-5.333-11.733C167.467,147.728,173.867,145.6,173.867,145.6Z"/>
    </g>
    <path id="Path_18" data-name="Path 18" class="cls-5" d="M151.467,106.128s-6.4,1.067-16,3.2-29.867,4.267-29.867,4.267,5.333,8.533,4.267,21.333c0,13.867,7.467,25.6,7.467,34.133s-13.867,86.4-22.4,103.467S81.067,297.061,80,311.995c-2.133,14.933-6.4,37.333,0,41.6s14.933-16,26.667-33.067,44.8-81.067,48-99.2C157.867,202.128,151.467,106.128,151.467,106.128Z"/>
    <path id="Path_19" data-name="Path 19" class="cls-2" d="M124.8,226.662l6.4,3.2s7.467,2.133,4.267-23.467c0,0-6.4,2.133-8.533,4.267S124.8,226.662,124.8,226.662Z"/>
    <g id="Group_4" data-name="Group 4">
      <path id="Path_20" data-name="Path 20" class="cls-6" d="M162.133,146.661v17.067c0,11.733-8.533,57.6-8.533,57.6s1.067-24.533-2.133-32c-2.133-7.467-14.933-37.333-14.933-37.333l8.533-5.333-6.4-4.267,11.733-35.2a1.045,1.045,0,0,1,1.067,1.067v1.067h0l4.267,12.8C157.867,124.262,162.133,142.4,162.133,146.661Z"/>
      <path id="Path_21" data-name="Path 21" class="cls-6" d="M162.133,162.661v1.067c0,11.733-8.533,57.6-8.533,57.6s1.067-24.533-2.133-32c-2.133-7.467-14.933-37.333-14.933-37.333l8.533-5.333-6.4-4.267,11.733-35.2a5.541,5.541,0,0,1,2.133,4.267c1.067,2.133,3.387,2.657,4.453,5.857,1.137,3.411,2.716,7.565,2.8,11.421,8.354,23.85-1.351,5.333-.852,8.322l-.491-1.268C161.642,144.327,162.133,154.128,162.133,162.661Z"/>
    </g>
    <g id="Group_5" data-name="Group 5">
      <path id="Path_22" data-name="Path 22" class="cls-9" d="M129.067,209.6s8.533,1.067,8.533,0c0-2.133,1.067-3.2,3.2-5.333a13.525,13.525,0,0,1,6.4-1.067c3.2,0,9.6,0,10.667,2.133,2.133,2.133,0,5.333-3.2,4.267-3.2,0-5.333,0-6.4,1.067l-1.067,1.067s7.467,2.133,10.667,1.067,9.6-1.067,12.8-1.067c3.2,1.067,6.4,2.133,5.333,4.267a2.337,2.337,0,0,1,1.067,3.2c-1.067,2.133-6.4,4.267-12.8,4.267-7.467,0-18.133,2.133-24.533,1.067-6.4,0-16-2.133-24.533-3.2h-8.533Z"/>
      <path id="Path_23" data-name="Path 23" class="cls-9" d="M157.867,102.928c2.133,5.333,2.133,10.667,0,11.733-3.2,1.067-6.4-2.133-9.6-7.467-2.133-5.333-2.133-10.667,0-11.733C151.467,94.395,154.667,97.6,157.867,102.928Z"/>
    </g>
    <path id="Path_24" data-name="Path 24" class="cls-6" d="M280.533,202.128a37.775,37.775,0,0,1-2.133,12.8l-16,2.133s-1.067-21.333-20.267-25.6c-1.067-7.467-2.133-13.867-2.133-18.133,0-17.067,13.867-52.267,13.867-52.267s6.4,4.267,5.333,11.733,4.267,10.667,4.267,14.933-1.067,5.333,0,9.6C265.6,160.528,281.6,194.662,280.533,202.128Z"/>
    <path id="Path_25" data-name="Path 25" class="cls-5" d="M280.533,261.862s-19.2,2.133-26.667,3.2c-8.533,1.067-12.8,1.067-16-2.133-4.267-3.2-22.4-40.533-22.4-40.533s-6.4-29.867-7.467-57.6c0-18.133-4.267-38.4-6.4-50.133v-9.6c4.267,1.067,16,4.267,24.533,6.4,10.667,3.2,28.8,7.467,28.8,7.467s-13.867,35.2-13.867,52.267,10.667,75.733,14.933,80C261.333,257.6,280.533,261.862,280.533,261.862Z"/>
    <path id="Path_26" data-name="Path 26" class="cls-7" d="M241.067,214.928s-7.467-1.067-4.267-24.533c0,0,4.267-2.133,9.6,1.067s9.6,12.8,7.467,17.067S243.2,214.928,241.067,214.928Z"/>
    <path id="Path_27" data-name="Path 27" class="cls-6" d="M228.267,250.128c-1.067-1.067-14.933-19.2-21.333-42.667-4.267-16-7.467-50.133-9.6-72.533a32.233,32.233,0,0,0,3.2-9.6c0-4.267,1.067-7.467,1.067-11.733l14.933,26.667-3.2,6.4,9.6,1.067s-5.333,42.667-4.267,54.4C219.733,212.795,228.267,247.995,228.267,250.128Z"/>
    <g id="Group_6" data-name="Group 6">
      <path id="Path_28" data-name="Path 28" class="cls-11" d="M241.067,189.328,236.8,190.4a34.3,34.3,0,0,1-8.533-1.067c-3.2-1.067-9.6-4.267-12.8-2.133-3.2,1.067-9.6,12.8-9.6,12.8l25.6,13.867s3.2-1.067,4.267-2.133,6.4,2.133,13.867,0l8.533-1.067s-4.267-10.667-6.4-14.933S244.267,190.4,241.067,189.328Z"/>
      <path id="Path_29" data-name="Path 29" class="cls-11" d="M364.8,66.661l8.533,6.4v2.133L355.2,122.128s-5.333-6.4-9.6-7.467-11.733,6.4-17.067,5.333-7.467-3.2-8.533-5.333c-1.067-3.2-9.6-3.2-5.333-7.467,0,0-3.2,1.067-3.2-2.133s-3.2-4.267-3.2-4.267-9.6,2.133-8.533-3.2a117.194,117.194,0,0,1,3.2-11.733,13.192,13.192,0,0,0-3.2-2.133c-2.133-1.067-10.667-11.733-9.6-21.333s38.4-20.267,53.333-19.2C357.333,45.328,364.8,66.661,364.8,66.661Z"/>
    </g>
    <path id="Path_30" data-name="Path 30" class="cls-3" d="M324.267,388.8s10.667,25.6,20.267,30.933,12.8,10.667,12.8,10.667l-41.6,18.133s0-14.933-5.333-25.6c-5.333-11.733-18.133-23.467-18.133-23.467Z"/>
    <path id="Path_31" data-name="Path 31" class="cls-5" d="M317.867,459.2s-12.8,7.467-21.333,9.6S278.4,474.128,278.4,480.528s10.667,9.6,21.333,9.6,28.8-3.2,34.133-9.6,13.867-12.8,13.867-12.8L352,472s21.333-10.667,23.467-17.067c3.2-6.4,1.067-6.4,1.067-6.4l-5.333-7.467Z"/>
    <path id="Path_32" data-name="Path 32" class="cls-6" d="M313.6,441.061s6.4-6.4,18.133-6.4,22.4-8.533,22.4-8.533S362.666,428.261,371.2,440c0,0-13.867,6.4-22.4,12.8-8.533,7.467-12.8,10.667-20.267,12.8-8.533,3.2-44.8,4.267-50.133,14.933,0,0-1.067-4.267,8.533-8.533,9.6-5.333,20.267-8.533,22.4-13.867C312.533,450.662,313.6,441.061,313.6,441.061Z"/>
    <path id="Path_33" data-name="Path 33" class="cls-5" d="M283.733,286.395s-42.667,5.333-51.2,11.733-9.6,19.2-7.467,26.667c2.133,6.4,71.467,87.467,77.867,90.667a54.167,54.167,0,0,1,13.867-12.8c8.533-5.333,10.667-12.8,10.667-12.8s-28.8-34.133-37.333-45.867S278.4,331.2,278.4,331.2l42.667-22.4Z"/>
    <path id="Path_34" data-name="Path 34" class="cls-2" d="M469.333,483.728H305.067a17.127,17.127,0,0,1-11.733-5.333c-3.2-3.2-4.267-8.533-3.2-12.8l20.267-137.6,97.067,2.133L483.2,459.2a14.533,14.533,0,0,1,0,16C480,480.528,474.667,483.728,469.333,483.728Zm-154.666-150.4L294.4,466.662c0,3.2,0,6.4,2.133,8.533s5.333,4.267,8.533,4.267H469.333a11.2,11.2,0,0,0,9.6-5.333c2.133-3.2,2.133-7.467,0-11.733L404.266,335.463Z"/>
    <path id="Path_35" data-name="Path 35" class="cls-6" d="M202.667,411.2s2.133,6.4,14.933,8.533c11.733,2.133,26,11.672,26,11.672s31.6-59.672,34.8-71.4,5.333-28.8,5.333-28.8,35.2-4.267,70.4-2.133S439.466,310.929,444.8,299.2s8.533-37.333,8.533-37.333L342.4,270.395a19.02,19.02,0,0,1-13.867,8.533c-10.667,1.067-53.333,2.133-62.933,6.4-9.6,3.2-19.2,4.267-23.467,22.4S218.667,373.862,202.667,411.2Z"/>
    <path id="Path_36" data-name="Path 36" class="cls-7" d="M373.333,75.195s-19.2,18.133-23.467,46.933l17.067,13.867L387.2,90.128Z"/>
    <path id="Path_37" data-name="Path 37" class="cls-5" d="M452.267,237.328l-12.8,60.8s-98.133-6.4-104.533-18.133,2.133-61.867,5.333-73.6c3.2-10.667,13.867-37.333,20.267-66.133S387.2,87.995,387.2,87.995l6.4,1.067s18.133,9.6,24.533,13.867,21.333,22.4,24.533,30.933C443.733,143.462,452.267,237.328,452.267,237.328Z"/>
    <path id="Path_38" data-name="Path 38" class="cls-6" d="M381.867,80.528S374.4,84.795,368,107.195c-7.467,22.4-12.8,49.067-16,58.667S340.267,206.4,340.267,206.4s14.933-37.333,19.2-52.267C362.667,139.2,370.134,104,393.6,89.061Z"/>
    <path id="Path_39" data-name="Path 39" class="cls-4" d="M297.6,333.328S311.467,321.6,321.067,308.8s38.4-50.133,65.067-60.8,99.2-25.6,99.2-25.6-11.733,46.933-13.867,66.133S456.534,340.8,418.134,344C379.733,346.128,297.6,333.328,297.6,333.328Z"/>
    <path id="Path_40" data-name="Path 40" class="cls-6" d="M373.333,73.062c-3.2,3.2-16,5.333-19.2,1.067C350.933,68.8,340.266,65.6,336,69.862c-4.267,5.333-1.067,12.8-1.067,12.8L329.6,84.8a15.606,15.606,0,0,0-3.2-5.333c-2.133-3.2-9.6-4.267-9.6-8.533s-4.267-11.733-10.667-12.8-14.933,3.2-14.933,3.2-7.467-2.133-5.333-8.533,17.067-30.933,36.267-37.333c19.2-4.267,40.533,9.6,45.867,21.333C372.267,48.528,373.333,73.062,373.333,73.062Z"/>
    <path id="Path_41" data-name="Path 41" class="cls-11" d="M338.133,116.795h0c3.2-1.067,5.333-3.2,7.467-2.133,1.067,0,2.133,1.067,3.2,1.067,3.2-13.867,1.067-29.867,1.067-29.867C349.867,98.661,338.133,116.795,338.133,116.795Z"/>
    <path id="Path_42" data-name="Path 42" class="cls-12" d="M236.8,190.4s8.533-1.067,11.733,3.2,3.2,18.133-7.467,21.333h22.4s2.133-12.8-4.267-19.2S246.4,188.262,236.8,190.4Z"/>
    <path id="Path_43" data-name="Path 43" class="cls-6" d="M265.6,165.862v35.2c-2.133,1.067-4.267,2.133-5.333,4.267-3.2-5.333-7.467-12.8-17.067-14.933-1.067-7.467-2.133-12.8-2.133-17.067v-6.4H265.6Z"/>
    <path id="Path_44" data-name="Path 44" class="cls-11" d="M301.867,224.528a44,44,0,0,0-9.6-1.067c-5.333,0-9.6,2.133-13.867,0-3.2-2.133-4.267-3.2-7.467-2.133-2.133,1.067-3.2,2.133-4.267,2.133s-2.133,1.067-2.133,0c-1.067-1.067-3.2-2.133-3.2-3.2,0,0-2.133-2.133-1.067-3.2a10.739,10.739,0,0,1-1.067-3.2s-4.267-1.067-2.133-5.333,7.467-6.4,9.6-8.533c3.2-2.133,5.333-3.2,7.467-2.133,3.2,1.067,12.8,6.4,14.933,6.4C291.2,205.329,320,205.329,320,205.329l-1.067,19.2H301.867Z"/>
    <path id="Path_45" data-name="Path 45" class="cls-12" d="M314.667,202.128H304s-4.267,17.067-2.133,27.733l19.2,3.2Z"/>
    <path id="Path_46" data-name="Path 46" class="cls-6" d="M369.067,165.862s-5.333-30.933,2.133-45.867,29.867-14.933,39.467-5.333,17.067,32,16,45.867-9.6,27.733-9.6,38.4-3.2,14.933-7.467,19.2c-3.2,4.267-9.6,12.8-13.867,14.933-4.267,1.067-84.267,6.4-83.2,5.333s-3.2-27.733-2.133-36.267c0,0,26.667-1.067,30.933-1.067,4.267,1.067,6.4,0,9.6-2.133,3.2-1.067,3.2-2.133,5.333-1.067a11.773,11.773,0,0,0,8.533,0c2.133-1.067,4.267-4.267,4.267-4.267s-3.2-13.867-1.067-17.067S369.067,165.862,369.067,165.862Z"/>
    <g id="Group_7" data-name="Group 7">
      <path id="Path_47" data-name="Path 47" class="cls-13" d="M198.4,144.528l-6.4,16-10.667-17.067c11.733-3.2,17.067-9.6,17.067-9.6C198.4,137.062,198.4,140.262,198.4,144.528Z"/>
      <path id="Path_48" data-name="Path 48" class="cls-13" d="M178.133,143.462a24.664,24.664,0,0,0-6.4,7.467,77.015,77.015,0,0,1-4.267,7.467l-5.333-10.667A249.05,249.05,0,0,0,157.866,120C157.867,122.128,168.533,140.262,178.133,143.462Z"/>
    </g>
    <path id="Path_49" data-name="Path 49" class="cls-6" d="M152.533,106.128h2.133s-4.267-6.4-2.133-10.667-4.267-17.067,3.2-14.933,25.6-4.267,30.933-9.6,7.467-5.333,9.6-3.2S200.533,78.4,200.533,78.4a136.059,136.059,0,0,0-4.267-13.867c-2.133-5.333,2.133-10.667-16-16s-34.133,2.133-39.467,16,1.067,27.733,5.333,32C149.333,99.728,152.533,106.128,152.533,106.128Z"/>
    <path id="Path_50" data-name="Path 50" class="cls-12" d="M115.2,205.328l19.2,1.067s-6.4,3.2-6.4,12.8,2.133,9.6,2.133,9.6l-32-5.333C99.2,224.528,113.067,205.328,115.2,205.328Z"/>
    <path id="Path_51" data-name="Path 51" class="cls-6" d="M129.067,205.328c-11.733,5.333-16,9.6-18.133,22.4l-54.4-3.2s1.067-22.4,2.133-28.8S64,178.661,70.4,172.261c5.333-6.4,17.067-22.4,18.133-25.6s4.267-6.4,5.333-8.533,3.2-9.6,4.267-16a9.662,9.662,0,0,1,7.467-8.533s5.333,8.533,4.267,21.333c0,13.867,7.467,25.6,7.467,34.133,0,2.133-1.067,6.4-1.067,12.8h0l-8.533,19.2,3.2,1.067Z"/>
    <g id="Group_8" data-name="Group 8">
      <rect id="Rectangle_1" data-name="Rectangle 1" class="cls-14" width="17.067" height="217.6" transform="translate(150.4 241.595)"/>
      <path id="Path_52" data-name="Path 52" class="cls-15" d="M311.467,239.462h-304A7.291,7.291,0,0,1,0,232H0a7.291,7.291,0,0,1,7.467-7.467h304A7.291,7.291,0,0,1,318.934,232h0A7.292,7.292,0,0,1,311.467,239.462Z"/>
    </g>
    <path id="Path_53" data-name="Path 53" class="cls-16" d="M311.467,239.462c-99.2,7.467-200.533,6.4-304,0Z"/>
    <path id="Path_54" data-name="Path 54" class="cls-16" d="M248.533,473.061H69.333A14.12,14.12,0,0,1,83.2,459.194H234.667A14.121,14.121,0,0,1,248.533,473.061Z"/>
    <path id="Path_55" data-name="Path 55" class="cls-3" d="M231.572,463.016l-21.395,7.576L195.2,451.112s8.558-8.657,12.837-17.316c2.139-4.329,5.348-9.74,7.489-14.069h1.07c9.628,2.164,21.395,7.576,24.6,10.822C237.991,435.961,230.5,452.194,231.572,463.016Z" transform="translate(0 -0.73)"/>
    <path id="Path_56" data-name="Path 56" class="cls-5" d="M145.067,477.328H137.6s-3.2,4.267-2.133,5.333,23.467,9.6,38.4,12.8c13.867,3.2,33.067-2.133,36.267-5.333v5.333h21.333a5.038,5.038,0,0,0,5.333-5.333v-7.467l-7.467-5.333H145.067Z"/>
    <path id="Path_57" data-name="Path 57" class="cls-6" d="M196.267,448.528a10.64,10.64,0,0,1,8.533,5.333,21.689,21.689,0,0,0,12.8,9.6c4.267,1.067,13.867-3.2,14.933-6.4,0,0,4.267,18.133,3.2,25.6,0,0-17.067,0-28.8,5.333-12.8,4.267-17.067,7.467-30.933,4.267s-36.267-11.733-38.4-14.933l19.2-2.133c9.6-1.066,19.2-11.733,25.6-17.067A49.791,49.791,0,0,1,196.267,448.528Z"/>
    <path id="Path_58" data-name="Path 58" class="cls-7" d="M235.733,165.862H134.4a5.038,5.038,0,0,0-5.333,5.333l7.467,53.333h96L240,171.2C241.067,169.062,237.867,165.862,235.733,165.862Z"/>
    <ellipse id="Ellipse_2" data-name="Ellipse 2" class="cls-2" cx="5.333" cy="3.2" rx="5.333" ry="3.2" transform="translate(180.267 192.528)"/>
  </g>
</svg>
