<svg xmlns="http://www.w3.org/2000/svg" viewBox="0 0 188.5 183.5">
  <defs>
    <style>
      .cls-1 {
        stroke: #fff;
        stroke-width: 5px;
      }

      .cls-2 {
        fill: #fff;
      }
    </style>
  </defs>
  <g id="administrator" transform="translate(-811.5 -380.5)">
    <g id="user" transform="translate(814 382.989)">
      <g id="Group_16" data-name="Group 16" transform="translate(0 0.011)">
        <path id="Path_70" data-name="Path 70" class="cls-1" d="M135.224,24.168A78.469,78.469,0,1,0,24.157,134.992c.045.045.062.112.106.151.454.437.947.807,1.407,1.228,1.261,1.121,2.522,2.281,3.851,3.363.712.561,1.452,1.121,2.181,1.637,1.256.936,2.511,1.872,3.823,2.736.891.561,1.811,1.121,2.724,1.682,1.211.729,2.416,1.463,3.666,2.13,1.06.561,2.141,1.042,3.217,1.553,1.177.561,2.338,1.121,3.543,1.625s2.416.9,3.638,1.334,2.276.841,3.447,1.2c1.323.4,2.679.706,4.025,1.037,1.121.275,2.208.589,3.363.813,1.547.308,3.117.5,4.686.718.97.135,1.917.325,2.9.42,2.567.252,5.157.393,7.769.393s5.2-.14,7.769-.393c.981-.1,1.928-.286,2.9-.42,1.57-.213,3.139-.409,4.686-.718,1.121-.224,2.242-.561,3.363-.813,1.345-.331,2.7-.639,4.025-1.037,1.172-.359,2.3-.8,3.447-1.2s2.444-.841,3.638-1.334,2.365-1.071,3.543-1.625c1.076-.51,2.158-.992,3.217-1.553,1.25-.667,2.455-1.4,3.666-2.13.914-.561,1.833-1.071,2.724-1.682,1.312-.863,2.567-1.8,3.823-2.736.729-.561,1.468-1.065,2.181-1.637,1.329-1.065,2.59-2.2,3.851-3.363.459-.42.953-.79,1.407-1.228.045-.039.062-.106.106-.151A78.381,78.381,0,0,0,135.224,24.168Zm-12.6,104.955c-1.02.9-2.074,1.749-3.139,2.573-.628.482-1.256.958-1.9,1.418-1.015.734-2.046,1.429-3.094,2.1-.762.488-1.541.958-2.326,1.418q-1.48.841-3,1.682c-.9.459-1.811.891-2.73,1.317s-1.934.88-2.926,1.278-2.046.773-3.083,1.121c-.947.325-1.894.661-2.853.947-1.121.336-2.293.611-3.453.891-.908.213-1.8.454-2.724.634-1.329.258-2.685.437-4.047.622-.773.1-1.541.241-2.321.32-2.153.207-4.333.331-6.536.331s-4.383-.123-6.536-.331c-.779-.079-1.547-.219-2.321-.32-1.362-.185-2.719-.364-4.047-.622-.919-.179-1.816-.42-2.724-.634-1.16-.28-2.315-.561-3.453-.891-.958-.286-1.906-.622-2.853-.947-1.037-.359-2.074-.723-3.083-1.121s-1.962-.835-2.926-1.278-1.833-.858-2.73-1.317c-1.015-.527-2.018-1.082-3-1.682-.785-.459-1.564-.93-2.326-1.418-1.048-.667-2.08-1.362-3.094-2.1-.645-.46-1.272-.936-1.9-1.418-1.065-.824-2.119-1.682-3.139-2.573-.247-.185-.471-.42-.712-.634A44.973,44.973,0,0,1,64.2,86.476a33.236,33.236,0,0,0,28.555,0,44.974,44.974,0,0,1,30.567,42.014C123.09,128.7,122.865,128.916,122.625,129.123ZM58.934,44.955A22.422,22.422,0,1,1,89.468,75.489a.118.118,0,0,0-.1.034,23.749,23.749,0,0,1-4.686,1.984c-.291.084-.561.2-.869.269-.561.146-1.149.247-1.727.347a22.706,22.706,0,0,1-3.29.331h-.639a22.7,22.7,0,0,1-3.29-.331c-.561-.1-1.155-.2-1.726-.347-.3-.073-.561-.185-.869-.269a23.73,23.73,0,0,1-4.686-1.984l-.1-.034A22.422,22.422,0,0,1,58.934,44.955Zm74.336,72.419h0a56.335,56.335,0,0,0-30.012-38.639,33.633,33.633,0,1,0-49.553,0,56.335,56.335,0,0,0-30.012,38.639,67.267,67.267,0,1,1,109.577,0Z" transform="translate(0 -0.011)"/>
      </g>
    </g>
    <circle id="Ellipse_5" data-name="Ellipse 5" class="cls-2" cx="52" cy="52" r="52" transform="translate(896 460)"/>
    <g id="gear" transform="translate(908 472)">
      <g id="Group_13" data-name="Group 13">
        <g id="Group_12" data-name="Group 12">
          <path id="Path_68" data-name="Path 68" d="M77.143,28.571H72.306a33.988,33.988,0,0,0-1.377-3.337l3.429-3.429a2.857,2.857,0,0,0,0-4.04L62.223,5.654a2.857,2.857,0,0,0-4.04,0L54.754,9.083a34.553,34.553,0,0,0-3.326-1.389V2.857A2.857,2.857,0,0,0,48.571,0H31.429a2.857,2.857,0,0,0-2.857,2.857V7.694a34.543,34.543,0,0,0-3.34,1.377L21.8,5.643a2.857,2.857,0,0,0-4.04,0L5.654,17.777a2.857,2.857,0,0,0,0,4.04l3.429,3.429a33.922,33.922,0,0,0-1.389,3.326H2.857A2.857,2.857,0,0,0,0,31.429V48.571a2.857,2.857,0,0,0,2.857,2.857H7.694a33.95,33.95,0,0,0,1.377,3.337L5.643,58.194a2.857,2.857,0,0,0,0,4.04L17.766,74.357a2.857,2.857,0,0,0,4.04,0l3.429-3.429a34.6,34.6,0,0,0,3.337,1.377v4.837A2.857,2.857,0,0,0,31.429,80H48.572a2.857,2.857,0,0,0,2.857-2.857V72.306a34.544,34.544,0,0,0,3.34-1.377L58.2,74.357a2.857,2.857,0,0,0,4.04,0L74.36,62.234a2.857,2.857,0,0,0,0-4.04l-3.429-3.429a33.927,33.927,0,0,0,1.374-3.337h4.837A2.857,2.857,0,0,0,80,48.571V31.429A2.857,2.857,0,0,0,77.143,28.571ZM74.286,45.714H70.214a2.857,2.857,0,0,0-2.749,2.077,28.4,28.4,0,0,1-2.526,6.126,2.857,2.857,0,0,0,.474,3.429l2.857,2.871L60.2,68.286l-2.871-2.857a2.857,2.857,0,0,0-3.429-.474A28.49,28.49,0,0,1,47.78,67.48a2.857,2.857,0,0,0-2.08,2.749v4.057H34.286V70.214a2.857,2.857,0,0,0-2.08-2.749,28.493,28.493,0,0,1-6.123-2.526,2.857,2.857,0,0,0-3.429.474L19.8,68.271,11.714,60.2l2.857-2.871a2.857,2.857,0,0,0,.474-3.429,28.393,28.393,0,0,1-2.526-6.126,2.857,2.857,0,0,0-2.734-2.063H5.714V34.286H9.786a2.857,2.857,0,0,0,2.749-2.077,28.4,28.4,0,0,1,2.526-6.126,2.857,2.857,0,0,0-.474-3.429L11.728,19.8,19.8,11.714l2.857,2.857a2.857,2.857,0,0,0,3.429.474,28.489,28.489,0,0,1,6.123-2.526,2.857,2.857,0,0,0,2.08-2.734V5.714H45.714V9.786a2.857,2.857,0,0,0,2.08,2.749,28.493,28.493,0,0,1,6.123,2.526,2.857,2.857,0,0,0,3.429-.474l2.871-2.857L68.286,19.8l-2.857,2.857a2.857,2.857,0,0,0-.474,3.429,28.393,28.393,0,0,1,2.526,6.126,2.857,2.857,0,0,0,2.749,2.077h4.057V45.714Z"/>
        </g>
      </g>
      <g id="Group_15" data-name="Group 15" transform="translate(20 20)">
        <g id="Group_14" data-name="Group 14">
          <path id="Path_69" data-name="Path 69" d="M139.466,119.467a20,20,0,1,0,20,20A20,20,0,0,0,139.466,119.467Zm0,34.286a14.286,14.286,0,1,1,14.286-14.286A14.286,14.286,0,0,1,139.466,153.753Z" transform="translate(-119.466 -119.467)"/>
        </g>
      </g>
    </g>
  </g>
</svg>
