<?xml version="1.0" encoding="iso-8859-1"?>
<!-- Generator: Adobe Illustrator 19.0.0, SVG Export Plug-In . SVG Version: 6.00 Build 0)  -->
<svg version="1.1" id="Capa_1" xmlns="http://www.w3.org/2000/svg" xmlns:xlink="http://www.w3.org/1999/xlink" x="0px" y="0px"
	 viewBox="0 0 512 512" style="enable-background:new 0 0 512 512;" xml:space="preserve">
<g>
	<g>
		<path d="M452,166V61c0-8.284-6.716-15-15-15s-15,6.716-15,15v18.277L194.161,136H106c-19.555,0-36.228,12.541-42.42,30H45
			c-24.813,0-45,20.187-45,45v30c0,24.813,20.187,45,45,45h18.58c4.8,13.534,15.899,24.102,29.758,28.174l23.224,116.119
			C120.7,450.983,139.017,466,160.117,466c13.36,0,25.88-5.926,34.35-16.257c8.47-10.332,11.825-23.771,9.205-36.871L184.297,316
			h9.864L422,372.723V391c0,8.284,6.716,15,15,15s15-6.716,15-15V286c33.084,0,60-26.916,60-60S485.084,166,452,166z M61,256H45
			c-8.271,0-15-6.729-15-15v-30c0-8.271,6.729-15,15-15h16V256z M160.116,436c-6.849,0-12.794-4.874-14.138-11.59L124.297,316
			h29.406l20.551,102.755C176.04,427.685,169.225,436,160.116,436z M181,286c-6.838,0-67.583,0-74.868,0c-0.037,0-0.073,0-0.11,0
			H106c-8.271,0-15-6.729-15-15v-90c0-8.271,6.729-15,15-15h75V286z M422,341.807l-211-52.53V162.723l211-52.531V341.807z M452,256
			v-60c16.542,0,30,13.458,30,30S468.542,256,452,256z"/>
	</g>
</g>
<g>
</g>
<g>
</g>
<g>
</g>
<g>
</g>
<g>
</g>
<g>
</g>
<g>
</g>
<g>
</g>
<g>
</g>
<g>
</g>
<g>
</g>
<g>
</g>
<g>
</g>
<g>
</g>
<g>
</g>
</svg>
