<?xml version="1.0" encoding="iso-8859-1"?>
<!-- Generator: Adobe Illustrator 19.0.0, SVG Export Plug-In . SVG Version: 6.00 Build 0)  -->
<svg version="1.1" id="Capa_1" xmlns="http://www.w3.org/2000/svg" xmlns:xlink="http://www.w3.org/1999/xlink" x="0px" y="0px"
	 viewBox="0 0 477.867 477.867" style="enable-background:new 0 0 477.867 477.867;" xml:space="preserve">
<g>
	<g>
		<path d="M409.6,204.8V85.333c0-9.426-7.641-17.067-17.067-17.067H273.067C273.067,30.564,242.503,0,204.8,0
			s-68.267,30.564-68.267,68.267H17.067C7.641,68.267,0,75.908,0,85.333v149.811c0.003,9.426,7.646,17.065,17.071,17.062
			c4.215-0.001,8.28-1.562,11.413-4.382c13.941-12.69,35.529-11.676,48.219,2.265c12.69,13.941,11.676,35.529-2.265,48.219
			c-13.024,11.856-32.93,11.856-45.954,0c-7.006-6.306-17.797-5.738-24.103,1.267c-2.82,3.133-4.381,7.198-4.382,11.413V460.8
			c0,9.426,7.641,17.067,17.067,17.067h149.811c9.426-0.002,17.065-7.645,17.062-17.071c-0.001-4.215-1.562-8.28-4.382-11.413
			c-12.69-13.941-11.676-35.529,2.265-48.219s35.529-11.676,48.219,2.265c11.856,13.024,11.856,32.93,0,45.954
			c-6.306,7.006-5.738,17.797,1.267,24.103c3.133,2.82,7.198,4.381,11.413,4.382h149.811c9.426,0,17.067-7.641,17.067-17.067
			V341.333c37.703,0,68.267-30.564,68.267-68.267S447.303,204.8,409.6,204.8z M409.6,307.2c-3.884-0.058-7.729-0.785-11.366-2.15
			c-8.884-3.148-18.639,1.502-21.787,10.386c-0.648,1.827-0.979,3.752-0.98,5.69v122.607H270.848
			c1.475-5.569,2.221-11.306,2.219-17.067c0-37.703-30.564-68.267-68.267-68.267s-68.267,30.564-68.267,68.267
			c-0.002,5.761,0.744,11.498,2.219,17.067H34.133V339.115c5.569,1.475,11.306,2.221,17.067,2.219
			c37.703,0,68.267-30.564,68.267-68.267S88.903,204.8,51.2,204.8c-5.761-0.002-11.498,0.744-17.067,2.219V102.4H156.74
			c9.426-0.005,17.062-7.651,17.057-17.076c-0.001-1.939-0.333-3.863-0.98-5.691c-1.365-3.637-2.093-7.482-2.15-11.366
			c0-18.851,15.282-34.133,34.133-34.133s34.133,15.282,34.133,34.133c-0.058,3.884-0.785,7.729-2.15,11.366
			c-3.148,8.884,1.502,18.639,10.386,21.787c1.827,0.648,3.752,0.979,5.69,0.98h122.607v122.607
			c0.005,9.426,7.651,17.062,17.076,17.057c1.939-0.001,3.863-0.333,5.69-0.98c3.637-1.365,7.482-2.093,11.366-2.15
			c18.851,0,34.133,15.282,34.133,34.133S428.451,307.2,409.6,307.2z"/>
	</g>
</g>
<g>
</g>
<g>
</g>
<g>
</g>
<g>
</g>
<g>
</g>
<g>
</g>
<g>
</g>
<g>
</g>
<g>
</g>
<g>
</g>
<g>
</g>
<g>
</g>
<g>
</g>
<g>
</g>
<g>
</g>
</svg>
