<?xml version="1.0" encoding="iso-8859-1"?>
<!-- Generator: Adobe Illustrator 19.0.0, SVG Export Plug-In . SVG Version: 6.00 Build 0)  -->
<svg version="1.1" id="Capa_1" xmlns="http://www.w3.org/2000/svg" xmlns:xlink="http://www.w3.org/1999/xlink" x="0px" y="0px"
	 viewBox="0 0 512.001 512.001" style="enable-background:new 0 0 512.001 512.001;" xml:space="preserve">
<g>
	<g>
		<circle cx="242.865" cy="205.53" r="14.998"/>
	</g>
</g>
<g>
	<g>
		<path d="M488.909,307.34c-39.225-5.603-76.54-22.558-106.66-48.212c24.942-20.554,50.787-39.767,77.28-57.4
			c60.337-36.469,70.566-119.912,20.621-169.856C430.296-17.98,346.831-7.954,310.295,52.494
			c-18.785,28.211-42.194,57.952-59.068,78.561c-21.887-2.437-44.646,4.699-61.393,21.447c-18.13,18.131-25.006,43.31-20.653,66.797
			c-48.268,45.71-82.371,69.025-118.676,97.985c-57.604,34.965-68.319,115.423-19.754,163.988
			c48.32,48.32,128.987,38.083,164.165-19.982c29.63-37.402,48.477-64.577,85.788-105.527c16.76,25.647,27.805,54.772,32.153,85.208
			c0.804,5.623,4.716,10.311,10.105,12.108c5.365,1.789,11.315,0.411,15.348-3.624l53.028-53.027
			c4.018-4.018,5.42-9.959,3.624-15.348c-0.72-2.16-1.469-4.305-2.235-6.441c11.741,5.712,23.858,10.663,36.29,14.807
			c5.388,1.796,11.33,0.395,15.348-3.624l53.028-53.028c4.018-4.018,5.42-9.959,3.624-15.348S494.534,308.144,488.909,307.34z
			 M335.456,68.83c0.129-0.194,0.253-0.39,0.372-0.589c26.322-43.869,86.877-51.39,123.11-15.155
			c36.175,36.173,28.785,96.746-15.155,123.109c-0.199,0.119-0.396,0.244-0.589,0.372c-32.519,21.627-64.088,45.564-94.271,71.391
			l-31.819-31.819c3.208-22.775-3.884-46.307-21.215-63.637c-4.403-4.403-9.226-8.128-14.333-11.205
			C298.029,120.858,318.507,94.315,335.456,68.83z M211.044,173.713c17.543-17.543,46.088-17.544,63.634,0
			c17.585,17.586,17.586,46.046,0,63.632c-17.546,17.543-46.09,17.544-63.634,0C193.501,219.802,193.501,191.256,211.044,173.713z
			 M51.962,460.062c-29.074-29.073-29.36-76.076-0.539-105.489l15.969-12.421c14.15-8.195,31.055-11.746,48.174-9.327
			l-63.604,63.603c-4.29,4.29-5.572,10.741-3.252,16.345c2.322,5.604,7.79,9.259,13.857,9.259h17.769
			c30.385,0,57.591,17.488,70.424,44.383C121.373,489.098,78.894,486.994,51.962,460.062z M171.41,441.907
			c-16.502-25.875-43.382-43.651-73.982-48.523l48.917-48.916c4.127,2.729,8.042,5.906,11.673,9.538
			C182.256,378.244,186.007,414.187,171.41,441.907z M209.192,394.077c-2.83-23.138-13.221-44.539-29.964-61.282
			c-16.752-16.751-38.296-27.083-61.351-29.911c21.911-17.044,43.289-35.212,63.725-54.121c2.427,3.436,5.157,6.721,8.23,9.794
			c17.118,17.118,40.751,24.411,63.604,21.182l29.732,29.732C256.844,336.375,232.056,364.69,209.192,394.077z M295.889,258.557
			c3.604-3.604,6.791-7.513,9.547-11.664l20.942,20.942c-7.403,6.723-14.71,13.561-21.917,20.505l-20.245-20.245
			C288.343,265.367,292.259,262.188,295.889,258.557z M336.783,408.562c-7.207-26.864-19.06-52.354-35.004-75.214
			c6.474-6.672,14.724-14.941,22.316-22.281c16.212,20.94,29.636,44.638,39.356,70.828L336.783,408.562z M429.833,357.933
			c-20.813-7.735-40.565-18.011-58.869-30.618c-7.34-12.854-15.648-25.155-24.888-36.857c15.339-13.951,10.163-8.275,13.232-11.529
			c27.828,24.646,61.35,42.649,97.211,52.318L429.833,357.933z"/>
	</g>
</g>
<g>
</g>
<g>
</g>
<g>
</g>
<g>
</g>
<g>
</g>
<g>
</g>
<g>
</g>
<g>
</g>
<g>
</g>
<g>
</g>
<g>
</g>
<g>
</g>
<g>
</g>
<g>
</g>
<g>
</g>
</svg>
