<?xml version="1.0" encoding="iso-8859-1"?>
<!-- Generator: Adobe Illustrator 19.0.0, SVG Export Plug-In . SVG Version: 6.00 Build 0)  -->
<svg version="1.1" id="Capa_1" xmlns="http://www.w3.org/2000/svg" xmlns:xlink="http://www.w3.org/1999/xlink" x="0px" y="0px"
	 viewBox="0 0 477.867 477.867" style="enable-background:new 0 0 477.867 477.867;" xml:space="preserve">
<g>
	<g>
		<path d="M409.6,51.2h-68.267h-21.828l-13.193-39.526C303.992,4.707,297.476,0.006,290.133,0h-102.4
			c-7.343,0.006-13.859,4.707-16.179,11.674L158.362,51.2H68.267c-9.426,0-17.067,7.641-17.067,17.067V460.8
			c0,9.426,7.641,17.067,17.067,17.067H409.6c9.426,0,17.067-7.641,17.067-17.067V68.267C426.667,58.841,419.026,51.2,409.6,51.2z
			 M153.6,85.333h17.067c7.343-0.006,13.859-4.707,16.179-11.674l13.193-39.526h77.79l13.193,39.526
			c2.32,6.967,8.836,11.668,16.179,11.674h17.067v34.133H153.6V85.333z M392.533,443.733h-307.2v-358.4h34.133v51.2
			c0,9.426,7.641,17.067,17.067,17.067h204.8c9.426,0,17.067-7.641,17.067-17.067v-51.2h34.133V443.733z"/>
	</g>
</g>
<g>
	<g>
		<path d="M238.933,51.2c-9.426,0-17.067,7.641-17.067,17.067v17.067c0,9.426,7.641,17.067,17.067,17.067S256,94.759,256,85.333
			V68.267C256,58.841,248.359,51.2,238.933,51.2z"/>
	</g>
</g>
<g>
	<g>
		<path d="M341.333,204.8h-204.8c-9.426,0-17.067,7.641-17.067,17.067s7.641,17.067,17.067,17.067h204.8
			c9.426,0,17.067-7.641,17.067-17.067S350.759,204.8,341.333,204.8z"/>
	</g>
</g>
<g>
	<g>
		<path d="M341.333,273.067h-204.8c-9.426,0-17.067,7.641-17.067,17.067s7.641,17.067,17.067,17.067h204.8
			c9.426,0,17.067-7.641,17.067-17.067S350.759,273.067,341.333,273.067z"/>
	</g>
</g>
<g>
	<g>
		<path d="M341.333,341.333h-204.8c-9.426,0-17.067,7.641-17.067,17.067s7.641,17.067,17.067,17.067h204.8
			c9.426,0,17.067-7.641,17.067-17.067S350.759,341.333,341.333,341.333z"/>
	</g>
</g>
<g>
</g>
<g>
</g>
<g>
</g>
<g>
</g>
<g>
</g>
<g>
</g>
<g>
</g>
<g>
</g>
<g>
</g>
<g>
</g>
<g>
</g>
<g>
</g>
<g>
</g>
<g>
</g>
<g>
</g>
</svg>
