<svg xmlns="http://www.w3.org/2000/svg" viewBox="0 0 131.079 146.259">
  <defs>
    <style>
      .cls-1 {
        fill: #fff;
      }
    </style>
  </defs>
  <g id="edit-pencil" transform="translate(-26.57)">
    <g id="Group_18" data-name="Group 18" transform="translate(26.57)">
      <g id="Group_17" data-name="Group 17">
        <path id="Path_71" data-name="Path 71" class="cls-1" d="M176.732,205.713A5.713,5.713,0,0,0,171.019,200H112.172a5.713,5.713,0,0,0,0,11.427h58.847A5.713,5.713,0,0,0,176.732,205.713Z" transform="translate(-83.638 -142.867)"/>
        <path id="Path_72" data-name="Path 72" class="cls-1" d="M112.172,280a5.713,5.713,0,0,0,0,11.427h35.74a5.713,5.713,0,0,0,0-11.427Z" transform="translate(-83.638 -200.014)"/>
        <path id="Path_73" data-name="Path 73" class="cls-1" d="M68.531,134.833H49.423A11.439,11.439,0,0,1,38,123.406V22.853A11.439,11.439,0,0,1,49.423,11.427h70.241a11.439,11.439,0,0,1,11.427,11.427V57.99a5.713,5.713,0,0,0,11.427,0V22.853A22.879,22.879,0,0,0,119.664,0H49.423A22.879,22.879,0,0,0,26.57,22.853V123.406a22.879,22.879,0,0,0,22.853,22.853H68.531a5.713,5.713,0,1,0,0-11.426Z" transform="translate(-26.57)"/>
        <path id="Path_74" data-name="Path 74" class="cls-1" d="M307.567,277.037a17.158,17.158,0,0,0-24.235,0l-31.367,31.3a5.715,5.715,0,0,0-1.431,2.384L243.7,333.2a5.712,5.712,0,0,0,6.992,7.166l23.06-6.388a5.712,5.712,0,0,0,2.511-1.462l31.3-31.242A17.159,17.159,0,0,0,307.567,277.037Zm-38.31,46.333-11.6,3.214,3.4-11.178,21.164-21.118,8.081,8.081Zm30.234-30.177-1.107,1.1-8.08-8.08,1.1-1.1a5.713,5.713,0,0,1,8.084,8.076Z" transform="translate(-181.5 -194.317)"/>
        <path id="Path_75" data-name="Path 75" class="cls-1" d="M171.019,120H112.172a5.713,5.713,0,0,0,0,11.427h58.847a5.713,5.713,0,1,0,0-11.427Z" transform="translate(-83.638 -85.72)"/>
      </g>
    </g>
  </g>
</svg>
