<svg xmlns="http://www.w3.org/2000/svg" viewBox="0 0 179.529 167.912">
  <defs>
    <style>
      .cls-1 {
        stroke: #fff;
        stroke-width: 5px;
      }

      .cls-2 {
        fill: #30af60;
      }

      .cls-3, .cls-4 {
        stroke: none;
      }

      .cls-4 {
        fill: #fff;
      }
    </style>
  </defs>
  <g id="eligibility" transform="translate(-622.721 -381.602)">
    <g id="user" transform="translate(624 382.989)">
      <g id="Group_16" data-name="Group 16" transform="translate(0 0.011)">
        <path id="Path_70" data-name="Path 70" class="cls-1" d="M135.224,24.168A78.46,78.46,0,1,0,24.144,135.005c.058.032.075.1.119.138.454.437.947.807,1.407,1.228,1.261,1.121,2.522,2.281,3.851,3.363.712.561,1.452,1.121,2.181,1.637,1.256.936,2.511,1.872,3.823,2.736.891.561,1.811,1.121,2.724,1.682,1.211.729,2.416,1.463,3.666,2.13,1.06.561,2.141,1.042,3.217,1.553,1.177.561,2.338,1.121,3.543,1.625s2.416.9,3.638,1.334,2.276.841,3.447,1.2c1.323.4,2.679.706,4.025,1.037,1.121.275,2.208.589,3.363.813,1.547.308,3.117.5,4.686.718.97.135,1.917.325,2.9.42,2.567.252,5.157.393,7.769.393s5.2-.14,7.769-.393c.981-.1,1.928-.286,2.9-.42,1.57-.213,3.139-.409,4.686-.718,1.121-.224,2.242-.561,3.363-.813,1.345-.331,2.7-.639,4.025-1.037,1.172-.359,2.3-.8,3.447-1.2s2.444-.841,3.638-1.334,2.365-1.071,3.543-1.625c1.076-.51,2.158-.992,3.217-1.553,1.25-.667,2.455-1.4,3.666-2.13.914-.561,1.833-1.071,2.724-1.682,1.312-.863,2.567-1.8,3.823-2.736.729-.561,1.468-1.065,2.181-1.637,1.329-1.065,2.59-2.2,3.851-3.363.459-.42.953-.79,1.407-1.228.045-.039.062-.106.106-.151a78.381,78.381,0,0,0,2.375-110.824Zm-12.6,104.955c-1.02.9-2.074,1.749-3.139,2.573-.628.482-1.256.958-1.9,1.418-1.015.734-2.046,1.429-3.094,2.1-.762.488-1.541.958-2.326,1.418q-1.48.841-3,1.682c-.9.459-1.811.891-2.73,1.317s-1.934.88-2.926,1.278-2.046.773-3.083,1.121c-.947.325-1.894.661-2.853.947-1.121.336-2.293.611-3.453.891-.908.213-1.8.454-2.724.634-1.329.258-2.685.437-4.047.622-.773.1-1.541.241-2.321.32-2.153.207-4.333.331-6.536.331s-4.383-.123-6.536-.331c-.779-.079-1.547-.219-2.321-.32-1.362-.185-2.719-.364-4.047-.622-.919-.179-1.816-.42-2.724-.634-1.16-.28-2.315-.561-3.453-.891-.958-.286-1.906-.622-2.853-.947-1.037-.359-2.074-.723-3.083-1.121s-1.962-.835-2.926-1.278-1.833-.858-2.73-1.317c-1.015-.527-2.018-1.082-3-1.682-.785-.459-1.564-.93-2.326-1.418-1.048-.667-2.08-1.362-3.094-2.1-.645-.46-1.272-.936-1.9-1.418-1.065-.824-2.119-1.682-3.139-2.573-.247-.185-.471-.42-.712-.634A44.973,44.973,0,0,1,64.2,86.476a33.236,33.236,0,0,0,28.555,0,44.974,44.974,0,0,1,30.567,42.014c-.232.21-.457.426-.7.633ZM58.934,44.955A22.422,22.422,0,1,1,89.468,75.489a.118.118,0,0,0-.1.034,23.749,23.749,0,0,1-4.686,1.984c-.291.084-.561.2-.869.269-.561.146-1.149.247-1.727.347a22.706,22.706,0,0,1-3.29.331h-.639a22.7,22.7,0,0,1-3.29-.331c-.561-.1-1.155-.2-1.726-.347-.3-.073-.561-.185-.869-.269a23.729,23.729,0,0,1-4.686-1.984l-.1-.034A22.422,22.422,0,0,1,58.934,44.955Zm74.336,72.419h0a56.335,56.335,0,0,0-30.012-38.639,33.633,33.633,0,1,0-49.553,0,56.335,56.335,0,0,0-30.012,38.639,67.267,67.267,0,1,1,109.577,0Z" transform="translate(0 -0.011)"/>
      </g>
    </g>
    <g id="_4" data-name="4" class="cls-2" transform="translate(702.721 467.645)">
      <path class="cls-3" d="M 30.9908447265625 76.86848449707031 C 28.72326278686523 76.86848449707031 26.52546119689941 75.92705535888672 24.96099472045898 74.28558349609375 L 24.93856239318848 74.26205444335938 L 24.91644477844238 74.23822021484375 L -1.942604780197144 45.31308364868164 L -2.216038227081299 45.01863479614258 L -2.438921451568604 44.68428421020508 L -2.890881538391113 44.00632858276367 C -4.238215923309326 42.48984146118164 -4.999825000762939 40.5068244934082 -4.999854564666748 38.46743392944336 C -4.999854564666748 36.22451019287109 -4.078934192657471 34.05001831054688 -2.470510005950928 32.48904037475586 L 2.285197019577026 27.73333358764648 C 3.846213102340698 26.1247730255127 6.021014213562012 25.20355224609375 8.263961791992188 25.20355224609375 C 10.50704765319824 25.20355224609375 12.68173789978027 26.12465476989746 14.24277400970459 27.7333984375 L 14.55434513092041 28.04498481750488 L 14.61631202697754 28.10695266723633 L 14.67606163024902 28.17105102539063 L 31.20369338989258 45.90067291259766 L 74.91102600097656 0.5624685287475586 L 76.38579559326172 -0.9673314690589905 L 77.25456237792969 -0.9673314690589905 C 78.47443389892578 -1.636326789855957 79.85655975341797 -1.999848127365112 81.26549530029297 -1.999848127365112 C 83.50840759277344 -1.999848127365112 85.68316650390625 -1.078673362731934 87.24417877197266 0.5298538208007813 L 91.99997711181641 5.285680770874023 C 93.6083984375 6.846676349639893 94.52931213378906 9.021125793457031 94.52931213378906 11.26395225524902 C 94.52931213378906 13.48793888092041 93.62380218505859 15.64471054077148 92.04036712646484 17.20279312133789 L 37.00515365600586 74.30181121826172 C 35.44170379638672 75.93331909179688 33.2509880065918 76.86848449707031 30.9908447265625 76.86848449707031 Z"/>
      <path class="cls-4" d="M 30.99083709716797 71.86849212646484 C 31.9017276763916 71.86849212646484 32.7728385925293 71.49533843994141 33.40127182006836 70.83595275878906 L 88.49677276611328 13.67438411712646 C 89.15614318847656 13.04594898223877 89.52931213378906 12.17483997344971 89.52931213378906 11.26394939422607 C 89.52931213378906 10.3530797958374 89.15614318847656 9.48197078704834 88.49677276611328 8.853535652160645 L 83.67592620849609 4.032666206359863 C 83.04749298095703 3.373296737670898 82.17638397216797 3.000144720077515 81.26548767089844 3.000144720077515 C 80.35459899902344 3.000144720077515 79.48348999023438 3.373296737670898 78.85505676269531 4.032666206359863 L 78.51070404052734 4.032666206359863 L 32.36822891235352 51.89688491821289 C 32.05427169799805 52.22701263427734 31.61861991882324 52.4139289855957 31.16301155090332 52.4139289855957 C 30.70742416381836 52.4139289855957 30.27177238464355 52.22701263427734 29.95779418945313 51.89688491821289 L 11.01872825622559 31.5804271697998 L 10.6743803024292 31.23608016967773 C 10.04594612121582 30.57670974731445 9.174837112426758 30.20355796813965 8.263967514038086 30.20355796813965 C 7.353076457977295 30.20355796813965 6.481967449188232 30.57670974731445 5.853532791137695 31.23608016967773 L 1.032685041427612 36.05692672729492 C 0.3732937574386597 36.68536376953125 0.0001415896258549765 37.55646896362305 0.0001415896258549765 38.46736145019531 C 0.0001633287465665489 39.37823104858398 0.3732937574386597 40.24936294555664 1.032685041427612 40.8777961730957 L 1.721359014511108 41.91082000732422 L 28.58042335510254 70.83596801757813 C 29.20885848999023 71.49533843994141 30.0799674987793 71.86849212646484 30.99083709716797 71.86849212646484 M 30.99083709716797 81.86849212646484 C 27.36214065551758 81.86849212646484 23.84511947631836 80.36196899414063 21.34159851074219 77.73519134521484 L -5.606575965881348 48.71531677246094 L -6.153401851654053 48.12644958496094 L -6.599162578582764 47.4577751159668 L -6.883600234985352 47.03111267089844 C -8.878460884094238 44.64583206176758 -9.999783515930176 41.59843444824219 -9.999858856201172 38.46760177612305 C -9.999858856201172 34.83858108520508 -8.493271827697754 31.32151412963867 -5.866423606872559 28.81797027587891 L -1.217532277107239 24.16501426696777 C 1.118228554725647 21.71007919311523 4.635250091552734 20.20355796813965 8.263967514038086 20.20355796813965 C 11.89266300201416 20.20355796813965 15.4096851348877 21.71007919311523 17.91320610046387 24.33686256408691 L 31.26090812683105 38.63741683959961 L 71.31134033203125 -2.907724857330322 L 74.26087951660156 -5.967333793640137 L 76.13500213623047 -5.967333793640137 C 77.74859619140625 -6.640732288360596 79.49365234375 -6.999855518341064 81.26548767089844 -6.999855518341064 C 84.89420318603516 -6.999855518341064 88.41123199462891 -5.49333381652832 90.91474914550781 -2.866550922393799 L 95.56785583496094 1.782492399215698 C 98.02277374267578 4.118253231048584 99.52931213378906 7.635253429412842 99.52931213378906 11.26394939422607 C 99.52931213378906 14.89264488220215 98.02277374267578 18.40966606140137 95.39598846435547 20.91320991516113 L 40.60127258300781 77.77571105957031 C 38.13668441772461 80.36190795898438 34.61962127685547 81.86849212646484 30.99083709716797 81.86849212646484 Z"/>
    </g>
  </g>
</svg>
