<?xml version="1.0" encoding="iso-8859-1"?>
<!-- Generator: Adobe Illustrator 19.0.0, SVG Export Plug-In . SVG Version: 6.00 Build 0)  -->
<svg version="1.1" id="Capa_1" xmlns="http://www.w3.org/2000/svg" xmlns:xlink="http://www.w3.org/1999/xlink" x="0px" y="0px"
	 viewBox="0 0 512 512" style="enable-background:new 0 0 512 512;" xml:space="preserve">
<path style="fill:#FFC850;" d="M444.561,512H67.439c-24.762,0-44.836-20.074-44.836-44.836V214.512l211.22-206.09
	c11.452-11.173,29.706-11.237,41.235-0.144l214.339,206.234v252.652C489.397,491.926,469.323,512,444.561,512z"/>
<polygon style="fill:#FFAA4D;" points="464.902,247.16 464.902,190.944 307.342,39.342 202.133,39.342 47.098,190.612 
	47.098,247.16 254.16,379.927 "/>
<path style="fill:#E9EBF2;" d="M441.013,245.671L254.371,363.256L70.986,245.671V87.086c0-14.065,11.402-25.467,25.467-25.467
	h319.092c14.065,0,25.467,11.402,25.467,25.467L441.013,245.671L441.013,245.671z"/>
<path style="fill:#DFE2EA;" d="M70.986,206.058v39.613L254.37,363.256l186.643-117.585v-39.613l-158.392,99.787
	c-17.24,10.861-39.206,10.774-56.359-0.225L70.986,206.058z"/>
<g>
	<path style="fill:#C7CAD3;" d="M392.458,116.805H120.073c-4.644,0-8.408-3.764-8.408-8.408s3.764-8.408,8.408-8.408h272.385
		c4.644,0,8.408,3.764,8.408,8.408C400.867,113.041,397.103,116.805,392.458,116.805z"/>
	<path style="fill:#C7CAD3;" d="M282.348,233.401H120.073c-4.644,0-8.408-3.764-8.408-8.408s3.764-8.408,8.408-8.408h162.275
		c4.644,0,8.408,3.764,8.408,8.408S286.992,233.401,282.348,233.401z"/>
	<path style="fill:#C7CAD3;" d="M232.649,155.671H120.073c-4.644,0-8.408-3.764-8.408-8.408c0-4.644,3.764-8.408,8.408-8.408
		h112.576c4.644,0,8.408,3.764,8.408,8.408C241.058,151.907,237.294,155.671,232.649,155.671z"/>
	<path style="fill:#C7CAD3;" d="M190.838,194.536h-70.765c-4.644,0-8.408-3.764-8.408-8.408c0-4.644,3.764-8.408,8.408-8.408h70.765
		c4.644,0,8.408,3.764,8.408,8.408C199.247,190.772,195.483,194.536,190.838,194.536z"/>
	<path style="fill:#C7CAD3;" d="M308.389,194.536h-90.307c-4.644,0-8.408-3.764-8.408-8.408c0-4.644,3.764-8.408,8.408-8.408h90.307
		c4.644,0,8.408,3.764,8.408,8.408S313.033,194.536,308.389,194.536z"/>
	<path style="fill:#C7CAD3;" d="M394.272,194.536h-55.995c-4.644,0-8.408-3.764-8.408-8.408c0-4.644,3.764-8.408,8.408-8.408h55.995
		c4.644,0,8.408,3.764,8.408,8.408S398.916,194.536,394.272,194.536z"/>
	<path style="fill:#C7CAD3;" d="M394.272,233.401h-83.398c-4.644,0-8.408-3.764-8.408-8.408s3.764-8.408,8.408-8.408h83.398
		c4.644,0,8.408,3.764,8.408,8.408S398.916,233.401,394.272,233.401z"/>
	<path style="fill:#C7CAD3;" d="M392.458,155.671H263.66c-4.644,0-8.408-3.764-8.408-8.408c0-4.644,3.764-8.408,8.408-8.408h128.799
		c4.644,0,8.408,3.764,8.408,8.408C400.867,151.907,397.103,155.671,392.458,155.671z"/>
</g>
<path style="fill:#FFDC64;" d="M67.439,512h377.122c24.762,0,44.836-20.074,44.836-44.836V214.512L254.371,363.256L22.603,214.512
	v252.652C22.603,491.926,42.677,512,67.439,512z"/>
<path style="fill:#FFC850;" d="M67.439,512h377.122c11.089,0,21.231-4.035,29.058-10.705L254.371,363.256L30.536,492.62
	C38.626,504.325,52.133,512,67.439,512z"/>
<g>
</g>
<g>
</g>
<g>
</g>
<g>
</g>
<g>
</g>
<g>
</g>
<g>
</g>
<g>
</g>
<g>
</g>
<g>
</g>
<g>
</g>
<g>
</g>
<g>
</g>
<g>
</g>
<g>
</g>
</svg>
