<?xml version="1.0" encoding="iso-8859-1"?>
<!-- Generator: Adobe Illustrator 19.0.0, SVG Export Plug-In . SVG Version: 6.00 Build 0)  -->
<svg version="1.1" id="Capa_1" xmlns="http://www.w3.org/2000/svg" xmlns:xlink="http://www.w3.org/1999/xlink" x="0px" y="0px"
	 viewBox="0 0 477.873 477.873" style="enable-background:new 0 0 477.873 477.873;" xml:space="preserve">
<g>
	<g>
		<path d="M467.335,69.564c-6.379-2.642-13.722-1.18-18.603,3.703l-73.045,73.045l-41.967-43.52l71.117-73.899
			c6.532-6.795,6.318-17.599-0.477-24.131C401.18,1.707,396.941,0,392.531,0H273.065c-4.526,0.001-8.866,1.8-12.066,5.001
			l-68.267,68.267c-3.201,3.2-5,7.54-5.001,12.066v95.334L22.68,345.737c-30.228,30.228-30.228,79.237,0,109.466
			s79.237,30.228,109.466,0l165.052-165.069h95.334c4.526-0.001,8.866-1.8,12.066-5l68.267-68.267c3.201-3.2,5-7.54,5-12.066V85.333
			C477.866,78.431,473.711,72.207,467.335,69.564z M443.731,197.734L385.466,256h-95.334c-4.526,0.001-8.866,1.8-12.066,5.001
			L108.013,431.07c-16.634,17.167-44.034,17.598-61.201,0.965C29.645,415.401,29.213,388,45.847,370.833
			c0.316-0.327,0.638-0.648,0.965-0.965l170.052-170.069c3.201-3.2,5-7.54,5.001-12.066V92.399l58.266-58.266h72.294l-54.613,56.849
			c-6.372,6.611-6.372,17.078,0,23.689l65.434,67.84c3.18,3.299,7.553,5.181,12.134,5.222c4.528-0.208,8.845-1.975,12.22-5
			l56.132-56.201V197.734z"/>
	</g>
</g>
<g>
	<g>
		<path d="M114.045,363.401c-6.614-6.388-17.099-6.388-23.713,0l-17.067,17.067c-6.78,6.548-6.968,17.352-0.42,24.132
			c6.548,6.78,17.352,6.968,24.132,0.42c0.142-0.137,0.282-0.277,0.42-0.42l17.067-17.067
			C121.012,380.753,120.824,369.949,114.045,363.401z"/>
	</g>
</g>
<g>
</g>
<g>
</g>
<g>
</g>
<g>
</g>
<g>
</g>
<g>
</g>
<g>
</g>
<g>
</g>
<g>
</g>
<g>
</g>
<g>
</g>
<g>
</g>
<g>
</g>
<g>
</g>
<g>
</g>
</svg>
