<?xml version="1.0" encoding="iso-8859-1"?>
<!-- Generator: Adobe Illustrator 19.0.0, SVG Export Plug-In . SVG Version: 6.00 Build 0)  -->
<svg version="1.1" id="Capa_1" xmlns="http://www.w3.org/2000/svg" xmlns:xlink="http://www.w3.org/1999/xlink" x="0px" y="0px"
	 viewBox="0 0 440.051 440.051" style="enable-background:new 0 0 440.051 440.051;" xml:space="preserve">
<g>
	<g>
		<path d="M430.425,128.285c-47.2-3.6-92.8,3.6-130,17.6c-15.6,6-29.6,13.2-42,21.6c-0.4,0-0.4,0.4-0.8,0.4
			c-17.6,12.4-31.2,26.8-39.2,42.8c-0.8,2-2,4-2.8,6c-2.4-5.2-4.8-10.4-7.2-15.2c20-23.2,28.8-55.6,12.8-87.6
			c-8-16-21.6-30.8-39.2-42.8c-0.4-0.4-0.4-0.4-0.8-0.4c-12.4-8.4-26.4-15.6-42-21.6c-37.2-14-82.8-21.2-130-17.6
			c-5.2,0.4-9.6,5.2-9.2,10.8c0.4,2.8,1.6,5.6,4,7.2c22.8,19.6,31.2,49.6,39.6,79.2c5.2,18,10,36,18.4,52.8c0,0.4,0.4,0.4,0.4,0.8
			c20.8,39.6,52,54,82.4,52c12-0.8,24-4.4,34.8-9.6c4.8-2.4,9.2-5.2,13.6-8.4c6.4,13.2,12,26.8,17.2,41.2l-0.4,142
			c0,5.6,4.4,10,10,10c5.6,0,10-4.4,10-10v-45.6c4.8-14.4,10.4-28,16.8-40.8c4.4,3.2,8.8,6,13.6,8.4c10.8,5.6,22.8,8.8,34.8,9.6
			c30,2,61.6-12.4,82.4-52c0-0.4,0.4-0.4,0.4-0.8c8-16.8,13.2-34.8,18.4-52.8c8.4-30,16.8-60,39.6-79.2c2-1.6,3.6-4.4,4-7.2
			C440.425,133.485,436.025,128.685,430.425,128.285z M60.025,109.885c-6.4-21.2-13.6-42-26.4-59.6c35.2,0.4,70,6.8,98.8,17.6
			c12.8,4.8,24,10.4,34,16.8l2.4,57.6c-8-9.2-16.4-17.6-25.6-26c-0.4-0.4-1.2-1.2-1.6-1.6c-14.8-12.8-30.8-24.4-48.8-34.4
			c-4.8-2.8-11.2-1.2-13.6,4c-2.8,4.8-1.2,11.2,4,13.6c7.6,4.4,14.8,8.8,22,13.6L60.025,109.885z M170.025,206.285
			c-8.4,4.4-17.6,6.8-26.8,7.6c-22.8,1.6-46.8-10-62.8-41.2v-0.4c-6.4-12.8-10.8-27.2-14.8-41.6l66.4,2.8
			c11.2,10,21.2,21.2,30.4,32.8c8,10,14.8,20.4,21.2,31.6C179.225,201.085,174.825,203.885,170.025,206.285z M190.425,171.085
			l-3.2-69.6c6.8,6.8,12.4,14,16,21.6c10.4,21.2,6.4,42.8-5.6,59.6C195.225,178.685,192.825,175.085,190.425,171.085z
			 M230.025,301.085v-4.4c0.4,0.4,0.8,1.2,1.2,1.6C230.825,299.085,230.425,300.285,230.025,301.085z M249.625,267.885
			c-2.4,3.6-4.8,7.6-7.2,11.6c-12-17.2-16-38.8-5.6-59.6c3.6-7.6,9.2-14.8,16-21.6L249.625,267.885z M360.025,269.485
			c-16.4,31.2-40.4,42.4-62.8,41.2c-9.2-0.4-18.4-3.2-26.8-7.6c-4.8-2.4-9.2-5.2-13.2-8.8c6.4-11.2,13.6-21.6,21.2-31.6
			c9.2-11.6,19.2-22.4,30.4-32.8l66.4-2.8C370.825,242.285,366.425,256.285,360.025,269.485z M380.825,207.085l-45.2,1.6
			c6.8-4.8,14.4-9.6,22-13.6c4.8-2.8,6.4-8.8,4-13.6c-2.8-4.8-8.8-6.4-13.6-4c-18,10-34.4,21.6-48.8,34.4c-0.8,0.4-1.2,0.8-1.6,1.6
			c-9.2,8-18,16.8-25.6,26l2.4-57.6c10-6.4,21.6-12,34-16.8c28.8-10.8,63.2-17.2,99.6-17.2
			C394.425,165.085,387.225,185.885,380.825,207.085z"/>
	</g>
</g>
<g>
</g>
<g>
</g>
<g>
</g>
<g>
</g>
<g>
</g>
<g>
</g>
<g>
</g>
<g>
</g>
<g>
</g>
<g>
</g>
<g>
</g>
<g>
</g>
<g>
</g>
<g>
</g>
<g>
</g>
</svg>
