<svg xmlns="http://www.w3.org/2000/svg" viewBox="0 0 444.184 301.492">
  <g id="openBox" transform="translate(0 -71.347)">
    <g id="Group_17" data-name="Group 17">
      <path id="Path_73" data-name="Path 73" d="M404.2,205.738a3.5,3.5,0,0,0-3.165-.467s-119.009,40.477-122.261,41.6a4.13,4.13,0,0,1-4.487-1.42L236.837,199.2a3.5,3.5,0,0,0-6.222,2.2V369.287a3.5,3.5,0,0,0,4.837,3.233L403.5,303.082a3.5,3.5,0,0,0,2.163-3.234V208.582A3.5,3.5,0,0,0,404.2,205.738Z"/>
      <path id="Path_74" data-name="Path 74" d="M443.487,168.221l-32.07-42.859a3.5,3.5,0,0,0-1.852-1.27L223.141,71.456a4.255,4.255,0,0,0-2.1.049L34.62,124.141a3.5,3.5,0,0,0-1.851,1.27L.7,168.271a3.5,3.5,0,0,0,1.678,5.412l157.639,53.5a3.493,3.493,0,0,0,3.843-1.109l44.128-54.391,13.082,3.6a3.484,3.484,0,0,0,1.857,0v-.008c.064-.016.13-.023.192-.041l13.082-3.6,44.129,54.391a3.5,3.5,0,0,0,3.843,1.109l157.639-53.5a3.5,3.5,0,0,0,1.677-5.413Zm-221.295-7.84L88.5,123.856,222.192,86.329l133.494,37.479Z"/>
      <path id="Path_75" data-name="Path 75" d="M211.238,198.147a3.5,3.5,0,0,0-3.889,1.1L169.9,245.5a4.136,4.136,0,0,1-4.488,1.42c-3.252-1.121-122.26-41.6-122.26-41.6a3.5,3.5,0,0,0-4.627,3.313V299.9a3.5,3.5,0,0,0,2.163,3.233l168.044,69.438a3.5,3.5,0,0,0,4.837-3.234V201.445A3.5,3.5,0,0,0,211.238,198.147Z"/>
    </g>
  </g>
</svg>
