<svg xmlns="http://www.w3.org/2000/svg" viewBox="0 0 24.652 148.078">
  <defs>
    <style>
      .cls-1 {
        fill: #ff6975;
      }
    </style>
  </defs>
  <g id="warning" transform="translate(-137.604)">
    <g id="Group_21" data-name="Group 21" transform="translate(137.603)">
      <path id="Path_60" data-name="Path 60" class="cls-1" d="M163.941,301.5H149.73a3.114,3.114,0,0,0-2.5,1.336A4.951,4.951,0,0,0,146.177,306v15.744a4.959,4.959,0,0,0,1.055,3.164,3.116,3.116,0,0,0,2.5,1.335h14.212a3.118,3.118,0,0,0,2.5-1.335,4.963,4.963,0,0,0,1.054-3.164V306a4.953,4.953,0,0,0-1.055-3.163A3.112,3.112,0,0,0,163.941,301.5Z" transform="translate(-144.51 -178.162)"/>
      <path id="Path_61" data-name="Path 61" class="cls-1" d="M161.281,2.289Q160.254,0,158.811,0H141.047q-1.443,0-2.47,2.289a12.615,12.615,0,0,0-.971,5.424l1.554,92.545a13.122,13.122,0,0,0,1.138,5.422q1.082,2.292,2.526,2.292h14.212q1.441,0,2.526-2.292a13.156,13.156,0,0,0,1.138-5.422l1.553-92.545A12.594,12.594,0,0,0,161.281,2.289Z" transform="translate(-137.603)"/>
    </g>
  </g>
</svg>
